<svg xmlns="http://www.w3.org/2000/svg" width="500" height="500"
     viewBox="-25 -25 250 250" class="rotate">
    <style>
        .rotate {
        animation-name: ani-rotate;
        animation-duration: 30s;
        animation-timing-function: linear;
        animation-delay: 0s;
        animation-iteration-count: infinite;
        animation-direction: normal;
        animation-fill-mode: none;
        }

        @keyframes ani-rotate {
        0%{ transform: rotate(0); }
        100%{ transform: rotate(360deg); }
        }
    </style>
    <text fill="#ececec">.</text>
<path d="M192.23942436912918 61.37502631649184 C179.69161963960022 40.67578055825849 139.17240467850795 9.202648254164398 116.28145115159911 1.334330446714688 C108.26897630687952 -1.4198011550265632 90.49761400636473 -0.9035027232605599 82.391808684485 1.562448229366126 C63.45971732741242 7.3219757362964675 29.08175760503652 30.04958945416302 16.351904379160075 45.200400557971044 C10.933079940971055 51.64977464036923 4.908577123600119 67.91262439093416 2.89970660300402 76.09324316814802 C0.8766014002138078 84.33182910016394 -1.6358243648447566 101.7300776335986 0.49538056754073523 109.94136366910749 C6.2871518482031625 132.25638833664738 32.17527571833746 173.74507417714312 50.94012320221202 187.13855913765082 C61.598219416540175 194.74581794840952 88.63186783887625 200.448162932511 101.71816229145355 199.98523850219203 C116.5486373092938 199.4606141156728 146.75851303570911 190.97677387409118 158.09145866275998 181.39645219807096 C175.2213632703398 166.91566301750365 196.65228244246953 124.23488885004036 199.97893487704619 102.05245727150631 C201.51420282554338 91.81514607293224 197.60565372529408 70.2273238006011 192.23942436912918 61.37502631649184Z" stroke="none" fill="#79c2d0"  />
</svg>