<?xml version="1.0" standalone="no"?>
<!DOCTYPE svg PUBLIC "-//W3C//DTD SVG 20010904//EN"
 "http://www.w3.org/TR/2001/REC-SVG-20010904/DTD/svg10.dtd">
<svg version="1.0" xmlns="http://www.w3.org/2000/svg"
 width="300.000000pt" height="200.000000pt" viewBox="0 0 300.000000 200.000000"
 preserveAspectRatio="xMidYMid meet" style="background-color:#E4E9EF">
<metadata>
Created by potrace 1.10, written by Peter Selinger 2001-2011
</metadata>
<g transform="translate(0.000000,200.000000) scale(0.100000,-0.100000)"
fill="#8080ff" stroke="none">
<path d="M470 1955 c-83 -49 -90 -52 -90 -30 0 8 -12 22 -26 32 -24 16 -28 16
-60 -2 -57 -31 -102 -122 -84 -171 5 -13 21 -30 36 -36 23 -11 28 -9 52 21 15
19 39 56 55 84 21 39 27 45 27 26 0 -13 -7 -37 -15 -53 -9 -16 -14 -30 -13
-31 2 -1 84 45 183 102 99 57 172 103 162 103 -10 0 -41 -15 -70 -33 -29 -18
-81 -48 -117 -66 -36 -19 -78 -43 -94 -54 l-28 -20 7 24 c9 30 46 63 102 91
24 12 51 30 60 40 28 31 -6 21 -87 -27z m-147 -12 c7 -6 -15 -47 -39 -71 -9
-8 -15 -9 -19 -2 -5 8 -12 7 -23 -2 -13 -11 -14 -11 -4 7 12 24 61 75 72 75 4
0 10 -3 13 -7z m5 -93 c-18 -33 -35 -60 -38 -60 -11 0 -49 58 -42 64 3 4 14
-3 23 -15 16 -21 16 -21 49 37 19 32 35 53 38 46 2 -6 -11 -39 -30 -72z m-60
-82 c-2 -6 -11 -4 -20 5 -8 9 -18 13 -22 10 -3 -4 -6 5 -6 20 l0 26 26 -25
c14 -14 23 -31 22 -36z"/>
<path d="M660 1944 c-52 -31 -111 -64 -130 -73 -19 -10 -66 -34 -104 -54 -37
-20 -71 -35 -75 -32 -4 2 -19 -7 -34 -20 l-26 -25 -1 -296 c0 -237 2 -295 12
-291 7 2 112 62 233 132 121 70 300 173 397 228 l177 102 1 52 c0 46 -2 52
-22 55 -18 2 -24 10 -26 38 l-2 35 15 -26 c20 -37 42 -42 75 -19 15 11 117 72
227 135 163 94 192 115 166 115 -17 0 -35 -4 -38 -10 -3 -5 -16 -15 -28 -20
-20 -10 -20 -10 -4 3 20 16 22 27 6 27 -7 0 -74 -36 -150 -80 -76 -44 -140
-80 -143 -80 -3 0 -6 36 -6 80 0 60 -3 80 -14 80 -10 0 -12 -13 -9 -55 4 -49
2 -55 -16 -55 -29 0 -79 -46 -86 -81 -7 -29 -33 -36 -27 -8 1 9 -3 8 -11 -3
-8 -10 -19 -18 -24 -18 -6 0 -16 -7 -24 -16 -7 -8 -21 -13 -31 -11 -10 3 -16
1 -13 -3 6 -10 -35 -41 -45 -35 -4 3 -13 -2 -20 -10 -7 -8 -16 -12 -21 -9 -5
3 -9 0 -9 -5 0 -6 -4 -11 -10 -11 -5 0 -37 -18 -71 -40 -65 -42 -100 -54 -56
-20 14 11 30 20 36 20 6 0 11 5 11 12 0 6 3 9 6 5 4 -3 21 4 38 17 17 13 47
32 66 41 19 10 53 33 74 51 22 19 44 34 49 34 20 0 67 43 67 61 0 11 6 29 13
40 10 18 9 23 -13 41 -15 12 -26 15 -28 9 -2 -6 -12 -11 -23 -11 -10 0 -19 -4
-19 -10 0 -5 -3 -9 -7 -8 -5 2 -24 -9 -44 -25 -20 -15 -41 -27 -47 -27 -6 0
-17 -6 -24 -12 -7 -7 -36 -25 -65 -39 -29 -15 -49 -29 -46 -33 4 -3 -3 -6 -15
-6 -12 0 -22 2 -22 4 0 6 113 71 123 71 4 0 11 5 15 10 4 6 13 11 21 13 7 1
40 21 72 43 61 41 92 79 65 79 -7 0 -16 -6 -19 -13 -3 -7 -78 -55 -168 -107
-90 -51 -176 -102 -191 -112 -27 -19 -28 -19 -28 -1 1 13 53 48 185 123 101
58 178 106 169 108 -8 2 -35 -8 -59 -22 -33 -18 -45 -21 -45 -11 0 8 8 19 18
24 15 9 15 10 -6 11 -12 0 -76 -31 -141 -69 -167 -97 -161 -94 -161 -77 0 12
97 74 205 130 17 9 23 16 15 16 -8 0 -58 -25 -110 -56z m170 14 c0 -7 -69 -52
-153 -100 -83 -49 -172 -100 -195 -114 -37 -22 -43 -23 -40 -9 2 15 357 233
381 234 4 1 7 -5 7 -11z m202 -45 c-15 -26 -384 -236 -380 -216 3 14 358 231
381 232 4 1 4 -7 -1 -16z m143 -73 c6 -27 -11 -78 -22 -67 -2 3 1 15 7 27 22
40 2 32 -21 -9 -24 -43 -37 -42 -60 1 -19 35 40 95 78 81 6 -3 15 -18 18 -33z
m-145 18 c0 -7 -23 -25 -50 -40 -57 -32 -60 -33 -60 -15 0 6 21 24 48 39 53
31 62 33 62 16z m-490 -12 c0 -7 -27 -30 -60 -49 -49 -30 -60 -33 -60 -19 0
10 23 30 58 49 67 38 62 36 62 19z m-120 -586 c6 0 10 18 10 39 0 36 2 39 23
33 12 -3 25 -10 29 -15 4 -7 26 -2 60 12 64 26 53 15 -22 -25 -30 -16 -57 -32
-60 -35 -6 -8 -47 -29 -55 -29 -3 0 -3 5 0 10 3 6 1 10 -4 10 -13 0 -16 522
-3 534 4 4 8 -114 10 -263 1 -169 6 -271 12 -271z m480 526 c0 -8 -57 -47
-127 -87 -71 -40 -156 -90 -190 -111 -52 -31 -63 -35 -63 -20 1 12 59 51 188
124 103 59 188 107 190 108 1 0 2 -6 2 -14z m-210 -12 c0 -20 -116 -88 -132
-78 -5 3 -8 2 -7 -3 4 -20 -2 -24 -18 -12 -15 12 -16 12 -10 -3 3 -9 -1 -22
-9 -28 -16 -14 -20 -109 -4 -111 6 -1 16 -2 23 -3 6 -1 36 13 66 32 32 20 57
30 63 24 5 -5 -19 -22 -59 -43 -37 -18 -71 -38 -75 -44 -5 -7 -13 -6 -25 1
-14 9 -24 8 -44 -2 l-27 -13 -1 104 c-2 86 1 105 13 105 8 0 17 -6 19 -12 3
-7 6 -4 6 7 1 13 18 29 51 48 57 31 60 32 60 15 0 -7 -23 -25 -50 -40 -28 -16
-50 -34 -50 -40 0 -9 3 -9 8 -3 12 19 96 62 109 58 7 -3 27 7 45 21 32 25 48
32 48 20z m-324 -42 c-15 -15 -16 -15 -16 5 0 12 6 23 13 26 19 6 21 -13 3
-31z m658 8 c-10 -10 -373 -220 -380 -220 -2 0 -4 6 -4 13 0 15 384 238 389
225 2 -5 -1 -13 -5 -18z m24 -44 c-7 -6 -593 -341 -600 -344 -4 -2 -8 2 -8 10
0 19 604 367 608 350 2 -8 2 -15 0 -16z m-713 15 c3 -5 1 -12 -5 -16 -5 -3
-10 1 -10 9 0 18 6 21 15 7z m45 -15 c0 -8 -7 -16 -15 -20 -15 -5 -21 14 -8
27 11 12 23 8 23 -7z m706 -27 c-1 -34 -6 -43 -31 -57 -16 -9 -62 -36 -101
-59 -40 -24 -76 -43 -82 -43 -6 0 -17 -6 -24 -12 -8 -7 -23 -18 -33 -24 -11
-6 -42 -23 -69 -38 -26 -15 -51 -25 -53 -22 -3 3 11 13 31 22 20 10 37 22 38
28 0 6 1 18 2 26 1 8 15 22 31 30 17 8 44 24 60 35 42 28 60 38 143 85 39 23
72 48 72 56 0 8 4 14 9 14 5 0 8 -18 7 -41z m-446 19 c0 -7 -24 -26 -52 -43
-69 -39 -68 -39 -68 -23 0 8 24 28 53 45 59 36 67 38 67 21z m-263 -53 c-4 -8
-11 -15 -17 -15 -14 0 -13 27 3 33 16 6 21 1 14 -18z m-50 -37 c-3 -8 -6 -5
-6 6 -1 11 2 17 5 13 3 -3 4 -12 1 -19z m53 -7 c0 -5 -7 -14 -15 -21 -12 -10
-15 -10 -15 2 0 8 3 18 7 21 9 10 23 9 23 -2z m0 -55 c0 -8 -7 -16 -15 -20
-15 -5 -21 14 -8 27 11 12 23 8 23 -7z m240 -19 c0 -7 -30 -30 -67 -52 -38
-21 -78 -45 -90 -53 -20 -13 -23 -12 -23 1 0 9 36 37 83 66 90 54 97 57 97 38z
m-130 -21 c0 -8 -16 -23 -35 -35 -28 -16 -35 -17 -35 -6 0 9 15 24 33 35 38
24 37 24 37 6z m-124 -34 c-15 -15 -16 -15 -16 5 0 12 6 23 13 26 19 6 21 -13
3 -31z m384 24 c0 -7 -27 -30 -61 -50 -46 -28 -60 -32 -57 -19 2 9 28 31 58
49 65 39 60 37 60 20z m-415 -35 c3 -5 1 -12 -5 -16 -5 -3 -10 1 -10 9 0 18 6
21 15 7z m45 -20 c0 -5 -7 -14 -15 -21 -12 -10 -15 -10 -15 2 0 8 3 18 7 21 9
10 23 9 23 -2z m230 -25 c0 -7 -27 -30 -61 -50 -46 -28 -60 -32 -57 -19 2 9
28 31 58 49 65 39 60 37 60 20z m70 -6 c0 -5 -5 -10 -11 -10 -5 0 -7 5 -4 10
3 6 8 10 11 10 2 0 4 -4 4 -10z m-300 -24 c0 -8 -7 -16 -15 -20 -15 -5 -21 14
-8 27 11 12 23 8 23 -7z m260 5 c0 -5 -9 -11 -21 -14 -16 -4 -18 -3 -8 9 13
16 29 19 29 5z m-274 -79 c-15 -15 -16 -15 -16 5 0 12 6 23 13 26 19 6 21 -13
3 -31z m-33 -7 c4 -8 2 -17 -3 -20 -6 -4 -10 3 -10 14 0 25 6 27 13 6z m47
-24 c0 -5 -7 -14 -15 -21 -12 -10 -15 -10 -15 2 0 8 3 18 7 21 9 10 23 9 23
-2z m-20 -56 c0 -2 -9 -9 -20 -15 -18 -9 -20 -8 -20 15 0 23 2 24 20 15 11 -6
20 -13 20 -15z"/>
<path d="M1138 1849 c-10 -5 -18 -17 -18 -26 0 -9 -6 -13 -14 -10 -21 8 -27
-3 -10 -20 8 -9 16 -14 18 -12 10 14 47 79 44 79 -2 0 -11 -5 -20 -11z"/>
<path d="M481 1624 c0 -11 3 -14 6 -6 3 7 2 16 -1 19 -3 4 -6 -2 -5 -13z"/>
<path d="M1680 1930 c-2 -41 -4 -113 -5 -160 -1 -107 -2 -110 -20 -110 -8 0
-15 -4 -15 -10 0 -5 -5 -10 -11 -10 -5 0 -26 -11 -46 -25 -20 -13 -41 -21 -46
-18 -6 3 -7 1 -3 -5 4 -7 1 -12 -9 -12 -8 0 -34 -12 -57 -27 -28 -19 -43 -24
-45 -16 -3 8 -17 4 -44 -14 -23 -15 -35 -29 -29 -33 6 -4 0 -11 -15 -18 -32
-15 -47 -15 -22 -1 9 5 17 16 17 24 0 10 -7 7 -24 -8 -13 -12 -34 -30 -47 -39
-15 -11 -17 -16 -6 -12 31 11 18 -4 -23 -24 -22 -11 -40 -15 -40 -10 0 5 -4 6
-10 3 -7 -4 -10 54 -11 167 -1 95 -3 165 -6 155 -3 -11 -11 -16 -19 -13 -11 4
-14 -6 -14 -49 0 -29 -4 -57 -10 -60 -5 -3 -10 -35 -10 -71 0 -44 -4 -64 -12
-64 -10 0 -10 -2 -1 -8 7 -4 13 -35 15 -69 l3 -61 215 124 c118 69 247 143
287 166 l72 41 3 71 c2 39 0 116 -3 171 l-5 100 -4 -75z m-524 -257 c-10 -10
-19 5 -10 18 6 11 8 11 12 0 2 -7 1 -15 -2 -18z m2 -43 c0 -16 -3 -30 -7 -30
-4 0 -8 14 -9 30 0 17 3 30 7 30 4 0 8 -13 9 -30z m2 -50 c0 -5 -4 -10 -10
-10 -5 0 -10 5 -10 10 0 6 5 10 10 10 6 0 10 -4 10 -10z m-4 -47 c-10 -10 -19
5 -10 18 6 11 8 11 12 0 2 -7 1 -15 -2 -18z m2 -43 c0 -16 -3 -30 -7 -30 -4 0
-8 14 -9 30 0 17 3 30 7 30 4 0 8 -13 9 -30z m226 15 c-4 -8 -11 -15 -16 -15
-6 0 -5 6 2 15 7 8 14 15 16 15 2 0 1 -7 -2 -15z m-89 -55 c-3 -5 -11 -10 -16
-10 -6 0 -7 5 -4 10 3 6 11 10 16 10 6 0 7 -4 4 -10z m-137 -30 c0 -16 -4 -30
-9 -30 -5 0 -8 -5 -6 -11 1 -6 -4 -14 -10 -16 -17 -6 -16 15 1 33 8 7 12 23 9
34 -3 11 -1 20 4 20 6 0 10 -13 11 -30z"/>
<path d="M1919 1976 c-8 -16 -18 -22 -35 -20 -18 2 -26 -4 -30 -21 -4 -16 -11
-21 -24 -18 -10 3 -26 -4 -36 -15 -11 -11 -28 -21 -38 -23 -26 -5 -44 -35 -29
-50 13 -13 53 5 53 25 0 7 10 12 23 11 12 -1 29 6 37 15 8 10 24 19 35 21 11
2 24 14 30 26 8 16 15 19 28 12 12 -7 20 -3 33 16 9 14 23 24 30 21 7 -3 17 1
22 7 8 9 2 12 -19 13 -18 1 -29 -4 -29 -12 0 -12 -29 -34 -44 -34 -15 0 -4 18
16 27 19 8 20 10 5 16 -12 5 -21 0 -28 -17z m-33 -52 c-11 -7 -22 -11 -25 -8
-3 3 3 12 13 20 11 7 22 11 25 8 3 -3 -3 -12 -13 -20z m-66 -41 c-12 -8 -24
-12 -28 -8 -9 9 28 36 40 29 5 -4 0 -13 -12 -21z m-50 -22 c0 -11 -31 -24 -39
-16 -3 3 1 10 9 15 19 12 30 12 30 1z"/>
<path d="M2126 1989 c3 -6 19 -9 35 -7 l29 5 0 -158 0 -157 -65 -38 c-43 -25
-65 -44 -65 -57 0 -10 -5 -27 -11 -39 -6 -11 -9 -22 -6 -24 3 -3 117 59 253
138 137 79 293 168 346 198 l98 55 0 41 c0 47 -8 60 -24 40 -18 -24 -271 -166
-275 -155 -4 13 -19 3 134 90 99 57 125 75 107 77 -13 2 -33 -5 -45 -15 -19
-16 -20 -16 -8 0 25 32 -7 19 -140 -58 -72 -41 -133 -75 -135 -75 -2 0 -4 4
-4 9 0 5 50 37 111 72 61 35 106 65 100 67 -6 2 -34 -10 -61 -27 -28 -17 -53
-31 -55 -31 -3 0 -24 -12 -46 -26 -23 -14 -43 -23 -47 -20 -8 8 -6 9 83 60 46
26 71 46 60 46 -11 0 -37 -11 -57 -25 -20 -14 -40 -25 -43 -25 -4 0 -20 -9
-36 -21 -21 -15 -28 -26 -24 -40 4 -11 2 -19 -4 -19 -8 0 -7 -7 1 -20 7 -11
19 -20 27 -20 11 0 12 -3 3 -12 -8 -8 -15 -8 -26 1 -10 8 -16 9 -21 1 -3 -5
-14 -10 -23 -10 -12 0 -13 3 -5 11 7 7 8 21 3 38 -9 32 -1 91 12 91 5 0 7 -4
4 -9 -7 -11 34 -2 50 10 6 5 14 6 17 2 4 -3 7 -1 7 5 0 7 8 12 19 12 10 0 24
7 31 15 11 13 9 15 -11 13 -13 -2 -26 -5 -29 -8 -8 -9 -59 -40 -65 -40 -17 0
0 20 27 31 17 7 26 15 20 17 -6 2 -25 -4 -42 -13 -32 -17 -57 -12 -30 5 12 8
10 10 -7 10 -23 0 -23 -2 -23 -137 l0 -137 28 25 c41 38 122 82 122 67 0 -7
-36 -34 -80 -59 l-80 -47 0 146 c0 134 -1 144 -16 126 -12 -14 -14 -15 -11 -3
5 14 -4 17 -54 18 -40 0 -58 -3 -53 -10z m122 -41 c-2 -6 -10 -14 -16 -16 -7
-2 -10 2 -6 12 7 18 28 22 22 4z m462 -16 c0 -21 -18 -42 -37 -42 -18 0 -16
25 3 44 21 21 34 20 34 -2z m-460 -21 c0 -6 -4 -13 -10 -16 -5 -3 -10 1 -10 9
0 9 5 16 10 16 6 0 10 -4 10 -9z m400 -12 c0 -20 -21 -49 -35 -49 -18 0 -20
31 -3 48 15 15 38 16 38 1z m-400 -28 c0 -6 -4 -13 -10 -16 -5 -3 -10 1 -10 9
0 9 5 16 10 16 6 0 10 -4 10 -9z m190 -6 c-7 -8 -18 -15 -24 -15 -6 0 -2 7 8
15 25 19 32 19 16 0z m150 -9 c0 -17 -35 -48 -43 -39 -12 11 -8 31 9 47 17 17
34 13 34 -8z m-340 -26 c0 -5 -4 -10 -10 -10 -5 0 -10 5 -10 10 0 6 5 10 10
10 6 0 10 -4 10 -10z m270 -15 c0 -7 -30 -31 -67 -52 -38 -21 -75 -42 -85 -48
-100 -60 -124 -74 -132 -73 -5 0 -12 -4 -15 -9 -6 -9 -129 -83 -137 -83 -2 0
-4 7 -4 15 0 17 59 57 72 49 4 -3 8 -1 8 3 0 5 26 24 58 43 31 19 60 39 63 44
4 5 14 6 24 3 9 -4 14 -3 10 3 -3 6 1 10 9 10 9 0 16 5 16 12 0 6 3 8 7 5 3
-4 13 -1 22 7 9 8 23 16 31 18 8 2 17 6 20 9 4 6 91 57 98 59 1 0 2 -7 2 -15z
m-274 -32 c-10 -10 -19 5 -10 18 6 11 8 11 12 0 2 -7 1 -15 -2 -18z m65 6
c-13 -11 -27 -17 -30 -13 -7 7 28 34 43 34 6 -1 0 -10 -13 -21z m-65 -46 c-10
-10 -19 5 -10 18 6 11 8 11 12 0 2 -7 1 -15 -2 -18z m4 -26 c0 -8 -11 -19 -25
-25 -19 -9 -25 -9 -25 1 0 10 8 17 48 36 1 0 2 -5 2 -12z"/>
<path d="M2810 1966 c0 -30 -6 -37 -45 -60 l-45 -27 -1 -387 c0 -213 -1 -431
-2 -485 l-2 -99 -95 -55 c-52 -30 -120 -68 -150 -85 -30 -16 -77 -43 -105 -60
-27 -17 -56 -31 -63 -32 -8 -2 -17 -7 -20 -12 -14 -19 -134 -84 -144 -78 -6 4
-8 2 -4 -4 3 -6 -4 -14 -16 -18 -13 -4 -40 -18 -60 -30 -47 -30 -48 -30 -48 4
0 24 4 27 27 26 33 -1 63 32 63 70 0 26 1 26 28 12 27 -14 32 -13 86 20 31 19
64 34 72 34 8 0 17 7 20 15 4 11 13 13 28 9 11 -4 18 -3 14 1 -4 4 4 16 17 27
14 10 24 22 24 26 -4 23 5 34 39 50 20 9 39 20 42 23 3 3 32 20 65 37 33 18
74 43 90 56 30 24 30 25 13 53 -27 45 -39 48 -97 19 -42 -20 -50 -22 -37 -7 9
9 16 27 16 38 0 15 13 27 43 41 56 26 71 45 63 78 -5 19 -11 24 -24 19 -9 -4
-26 -9 -37 -12 -18 -4 -18 -3 -2 7 9 6 17 21 17 34 0 13 7 29 15 36 20 17 19
33 -3 53 -12 11 -22 13 -28 7 -13 -13 -46 -2 -41 14 2 6 13 15 25 21 12 5 22
13 22 17 0 5 8 8 18 8 18 0 62 39 62 55 0 4 -11 23 -26 42 -21 28 -28 31 -45
23 -10 -6 -19 -8 -19 -4 0 4 -10 -2 -22 -13 -34 -30 -57 -41 -35 -16 9 11 17
29 17 40 0 14 15 27 50 44 55 27 74 60 47 86 -16 16 -25 15 -67 -13 -25 -16
-25 -16 -4 2 12 11 31 40 44 67 28 61 18 76 -48 73 -38 -2 -74 -17 -192 -85
-80 -46 -152 -89 -160 -96 -26 -22 -170 -96 -170 -88 0 5 -4 2 -9 -5 -14 -23
-73 -1 -78 28 -2 19 -1 21 6 10 5 -8 8 -17 6 -21 -6 -9 82 -6 89 4 3 4 3 5 -1
2 -3 -3 -17 2 -30 10 -21 14 -23 14 -23 0 0 -8 -4 -15 -10 -15 -12 0 -13 10 0
30 5 9 5 19 -2 27 -6 8 -8 17 -4 20 4 4 11 1 15 -6 7 -11 11 -10 21 5 10 17
11 17 6 -4 -5 -26 2 -52 14 -52 11 0 10 52 -2 73 -8 16 -7 18 11 12 15 -4 21
-2 21 9 0 24 -46 31 -75 12 -28 -18 -65 -84 -65 -116 0 -26 35 -61 55 -54 13
5 15 -33 15 -327 l-1 -334 -49 -24 c-49 -24 -49 -25 -29 -39 20 -14 25 -13 55
3 18 9 30 23 28 30 -3 6 1 17 9 23 10 9 13 6 13 -13 0 -17 -12 -31 -43 -51
-24 -15 -43 -28 -43 -30 0 -2 9 -8 19 -14 26 -13 50 -3 44 20 -5 20 12 36 22
20 3 -5 -2 -23 -12 -40 -16 -28 -16 -31 -1 -47 15 -14 15 -18 2 -27 -11 -9
-14 -28 -12 -78 l3 -67 377 217 377 217 1 487 0 487 45 27 c41 24 45 29 45 65
0 21 -4 39 -10 39 -5 0 -10 -15 -10 -34z m-282 -228 c-7 -20 -322 -199 -327
-186 -2 7 0 14 5 15 5 2 77 44 159 93 83 48 154 89 158 89 5 1 7 -5 5 -11z
m62 -10 c0 -7 -34 -32 -75 -55 -93 -52 -99 -33 -7 24 74 46 82 49 82 31z m-31
-73 c-9 -8 -319 -185 -324 -185 -4 0 -5 5 -3 11 5 16 322 198 327 187 1 -5 1
-11 0 -13z m-130 -29 c-27 -22 -322 -186 -327 -182 -9 10 5 20 168 114 85 50
157 86 159 80 1 -5 1 -11 0 -12z m181 -20 c0 -8 -75 -57 -166 -109 -92 -54
-164 -89 -162 -81 2 10 286 187 326 203 1 1 2 -5 2 -13z m-420 -65 c0 -8 -84
-61 -96 -61 -2 0 -4 4 -4 9 0 10 78 61 93 61 4 0 7 -4 7 -9z m308 -46 c-2 -8
-76 -57 -166 -109 -97 -56 -162 -89 -160 -80 2 11 294 192 326 203 2 1 2 -6 0
-14z m-418 -450 c0 -297 -3 -455 -10 -455 -7 0 -10 158 -10 455 0 297 3 455
10 455 7 0 10 -158 10 -455z m-39 402 c-16 -16 -26 0 -10 19 9 11 15 12 17 4
2 -6 -1 -17 -7 -23z m239 3 c-33 -27 -36 -28 -55 -12 -11 9 -14 10 -7 2 16
-19 15 -30 -3 -30 -8 0 -15 -3 -15 -8 0 -4 -10 -12 -22 -17 -18 -8 -24 -19
-25 -51 -3 -53 13 -68 51 -49 16 8 35 15 43 15 8 0 11 5 8 10 -3 6 -4 10 -1
10 2 0 13 3 23 7 17 6 17 5 -1 -15 -11 -12 -25 -22 -32 -22 -15 0 -73 -31
-116 -61 -30 -22 -43 -24 -32 -8 7 11 7 84 0 142 -4 31 22 61 78 91 33 18 37
18 54 3 16 -15 20 -15 47 3 43 29 45 24 5 -10z m319 5 c-20 -19 -308 -185
-322 -185 -24 0 22 31 173 119 144 83 185 101 149 66z m29 -26 c-6 -17 -513
-307 -517 -296 -2 5 3 13 10 18 171 101 496 288 502 289 5 0 7 -5 5 -11z
m-589 -30 c-9 -5 -15 -4 -18 2 -2 6 3 15 10 20 9 5 15 4 18 -2 2 -6 -3 -15
-10 -20z m231 9 c0 -7 -23 -25 -50 -40 -32 -18 -50 -23 -50 -15 0 6 21 24 48
39 55 32 52 31 52 16z m-220 -37 c0 -12 -20 -25 -27 -18 -7 7 6 27 18 27 5 0
9 -4 9 -9z m-9 -64 c-16 -16 -26 0 -10 19 9 11 15 12 17 4 2 -6 -1 -17 -7 -23z
m487 -19 c-7 -20 -322 -199 -327 -186 -2 7 0 13 5 15 5 2 77 43 159 92 83 49
154 90 158 90 5 1 7 -5 5 -11z m-478 -7 c0 -12 -20 -25 -27 -18 -7 7 6 27 18
27 5 0 9 -4 9 -9z m540 -4 c0 -7 -15 -21 -32 -30 -18 -8 -52 -28 -75 -42 -29
-17 -43 -22 -43 -13 0 7 30 32 68 54 75 47 82 49 82 31z m-335 -19 c-8 -20
-145 -92 -145 -76 0 7 31 30 68 50 73 41 84 44 77 26z m-214 -41 c-16 -16 -26
0 -10 19 9 11 15 12 17 4 2 -6 -1 -17 -7 -23z m329 21 c0 -7 -23 -26 -50 -41
-33 -19 -50 -24 -50 -15 0 7 22 25 48 40 56 32 52 31 52 16z m179 -41 c-160
-96 -320 -183 -317 -171 4 19 322 204 327 190 2 -5 -2 -14 -10 -19z m-499 -11
c0 -8 -7 -16 -15 -20 -15 -5 -21 14 -8 27 11 12 23 8 23 -7z m379 -11 c-9 -8
-319 -185 -324 -185 -4 0 -5 5 -3 11 5 15 322 197 327 187 1 -5 1 -11 0 -13z
m-179 -7 c0 -7 -23 -25 -50 -40 -32 -18 -50 -23 -50 -15 0 6 22 24 48 39 56
32 52 31 52 16z m354 -28 c-29 -27 -324 -187 -324 -176 0 8 60 48 133 89 72
42 146 85 162 95 27 17 49 11 29 -8z m-563 -13 c-16 -16 -26 0 -10 19 9 11 15
12 17 4 2 -6 -1 -17 -7 -23z m479 19 c0 -2 -7 -7 -16 -10 -8 -3 -12 -2 -9 4 6
10 25 14 25 6z m-50 -31 c0 -6 -56 -35 -67 -35 -4 1 8 9 27 20 39 22 40 22 40
15z m-431 -36 c-9 -5 -15 -4 -18 2 -2 6 3 15 10 20 9 5 15 4 18 -2 2 -6 -3
-15 -10 -20z m151 12 c0 -8 -84 -61 -96 -61 -25 0 62 68 89 70 4 0 7 -4 7 -9z
m-140 -40 c0 -12 -20 -25 -27 -18 -7 7 6 27 18 27 5 0 9 -4 9 -9z m444 -21
c-31 -27 -324 -187 -324 -176 0 8 60 48 133 89 72 42 146 85 162 95 27 17 49
11 29 -8z m105 -25 c-21 -21 -323 -195 -328 -189 -9 9 27 34 179 122 146 85
184 102 149 67z m-549 6 c0 -12 -20 -25 -27 -18 -7 7 6 27 18 27 5 0 9 -4 9
-9z m176 -6 c4 -10 15 -13 31 -10 14 2 23 2 20 -1 -3 -3 -9 -6 -14 -6 -4 0
-20 -8 -34 -19 -15 -10 -36 -16 -50 -13 -20 4 -21 3 -4 -4 18 -8 18 -9 1 -19
-25 -14 -33 -85 -11 -103 12 -10 19 -10 27 -2 7 7 17 12 22 12 10 0 -103 -79
-114 -80 -6 0 -4 200 2 203 1 1 26 14 53 29 59 32 64 33 71 13z m253 -18 c-2
-1 -13 -9 -24 -17 -19 -14 -19 -14 -6 3 7 9 18 17 24 17 6 0 8 -1 6 -3z m149
-8 c-6 -18 -512 -308 -517 -297 -2 6 3 14 10 19 8 4 122 71 254 148 132 77
244 140 248 140 5 1 7 -4 5 -10z m-587 -32 c-16 -16 -26 0 -10 19 9 11 15 12
17 4 2 -6 -1 -17 -7 -23z m229 11 c0 -7 -23 -26 -50 -41 -33 -19 -50 -24 -50
-15 0 7 22 25 48 40 56 32 52 31 52 16z m146 -13 c-11 -8 -25 -15 -30 -15 -6
1 0 7 14 15 32 19 40 18 16 0z m-366 -24 c0 -12 -20 -25 -27 -18 -7 7 6 27 18
27 5 0 9 -4 9 -9z m-9 -64 c-16 -16 -26 0 -10 19 9 11 15 12 17 4 2 -6 -1 -17
-7 -23z m229 -2 c-7 -8 -20 -15 -29 -15 -13 1 -13 3 3 15 26 19 42 19 26 0z
m-220 -29 c0 -8 -7 -16 -15 -20 -15 -5 -21 14 -8 27 11 12 23 8 23 -7z m210
-15 c0 -11 -141 -93 -148 -86 -9 8 12 25 75 61 61 35 73 39 73 25z m-219 -44
c-16 -16 -26 0 -10 19 9 11 15 12 17 4 2 -6 -1 -17 -7 -23z m329 20 c0 -7 -25
-27 -55 -44 -44 -26 -53 -28 -45 -13 7 14 69 58 98 69 1 1 2 -5 2 -12z m-331
-68 c-9 -5 -15 -4 -18 2 -2 6 3 15 10 20 9 5 15 4 18 -2 2 -6 -3 -15 -10 -20z
m211 -1 c0 -7 -23 -26 -50 -41 -33 -19 -50 -24 -50 -15 0 7 22 25 48 40 56 32
52 31 52 16z m-200 -27 c0 -12 -20 -25 -27 -18 -7 7 6 27 18 27 5 0 9 -4 9 -9z
m-3 -56 c-4 -8 -11 -15 -17 -15 -14 0 -13 27 3 33 16 6 21 1 14 -18z m3 -34
c0 -12 -20 -25 -27 -18 -7 7 6 27 18 27 5 0 9 -4 9 -9z"/>
<path d="M2949 1993 c-1 -5 -1 -12 0 -16 1 -5 -7 -6 -18 -2 -18 6 -51 -17 -51
-35 0 -5 -6 -7 -14 -4 -8 3 -17 1 -21 -5 -3 -7 0 -8 9 -5 22 8 20 -13 -1 -25
-10 -5 -15 -13 -11 -17 10 -9 38 14 38 31 0 8 8 11 18 8 10 -2 25 3 33 13 13
16 12 16 -9 5 -13 -7 -27 -10 -30 -6 -12 12 33 29 71 26 29 -2 37 1 37 14 0
15 -3 15 -15 5 -9 -7 -19 -10 -22 -6 -4 4 -1 11 7 16 13 8 12 10 -2 10 -10 0
-19 -3 -19 -7z"/>
<path d="M1527 1937 c-4 -12 -227 -147 -242 -147 -11 0 -85 -53 -81 -58 4 -3
51 22 249 135 4 2 7 0 7 -6 0 -5 -34 -29 -77 -52 -42 -23 -84 -50 -95 -61 -10
-10 -18 -15 -18 -10 0 4 -5 -1 -11 -10 -14 -26 -54 -23 -67 5 -10 20 -11 18
-11 -17 -1 -35 1 -37 16 -25 13 11 17 11 21 1 5 -15 82 25 82 43 0 6 55 42
122 81 140 79 138 79 138 67 0 -5 -48 -37 -107 -70 -60 -34 -117 -69 -128 -77
-18 -14 -19 -15 -2 -16 16 0 15 -3 -5 -22 -13 -13 -19 -20 -14 -15 14 10 26 9
26 -2 0 -12 -71 -54 -78 -46 -3 3 3 12 14 20 10 8 14 15 9 15 -31 1 -48 -63
-24 -87 15 -15 3 -32 -19 -26 -19 5 -50 -22 -39 -34 4 -3 2 -12 -4 -20 -9 -9
-8 -13 0 -13 10 0 15 13 12 33 -1 6 15 10 22 5 1 -1 23 11 50 26 33 20 47 24
48 14 0 -7 5 -4 10 7 6 11 67 52 135 92 102 58 124 68 124 52 0 -19 -33 -43
-44 -32 -3 3 -6 1 -6 -6 0 -7 -5 -9 -12 -5 -7 4 -8 3 -4 -4 6 -11 -6 -16 -26
-13 -5 0 -8 -4 -8 -10 0 -5 -4 -7 -10 -4 -5 3 -10 1 -10 -5 0 -6 -4 -9 -9 -6
-5 3 -12 -1 -15 -10 -3 -8 -10 -12 -16 -9 -5 3 -10 1 -10 -6 0 -7 -3 -9 -7 -6
-3 4 -12 -1 -20 -11 -10 -11 -12 -12 -8 -2 4 10 2 9 -8 -2 -8 -10 -17 -15 -20
-11 -4 3 -7 1 -7 -5 0 -14 -55 -44 -64 -35 -3 4 -6 0 -6 -7 0 -7 -3 -11 -6 -8
-3 4 -14 -2 -24 -12 -9 -9 -23 -19 -30 -22 -7 -2 -11 -9 -9 -14 2 -6 92 40
199 103 168 98 195 117 192 136 -4 34 -17 40 -50 23 -38 -20 -43 -20 -36 -2 3
7 20 21 38 31 53 29 74 105 25 92 -15 -4 -17 -2 -9 13 5 9 7 20 4 22 -2 3 2
11 10 17 8 7 12 19 9 27 -7 18 -59 19 -66 1z m51 -7 c-2 -6 -27 -24 -57 -41
-64 -37 -65 -22 -1 20 48 32 64 37 58 21z m5 -119 c-10 -11 -25 -21 -33 -23
-8 -2 -23 -14 -32 -28 -16 -23 -258 -173 -267 -165 -9 9 18 28 119 85 61 34
120 71 133 82 22 20 -12 3 -122 -60 -24 -14 -42 -20 -40 -13 6 16 253 160 257
150 2 -5 -5 -17 -15 -28z"/>
<path d="M1468 1924 c-38 -20 -36 -28 2 -9 17 9 30 18 30 20 0 7 -1 6 -32 -11z"/>
<path d="M1404 1884 c-18 -14 -18 -15 4 -4 12 6 22 13 22 15 0 8 -5 6 -26 -11z"/>
<path d="M2785 1865 c-25 -12 -26 -14 -9 -15 12 0 27 7 34 15 15 18 14 18 -25
0z"/>
<path d="M1348 1854 c-38 -20 -36 -28 2 -9 17 9 30 18 30 20 0 7 -1 6 -32 -11z"/>
<path d="M1284 1814 c-18 -14 -18 -15 4 -4 12 6 22 13 22 15 0 8 -5 6 -26 -11z"/>
<path d="M2117 1737 c-13 -12 -30 -21 -39 -19 -9 2 -23 -6 -31 -18 -8 -12 -24
-22 -36 -23 -11 -1 -23 -7 -26 -14 -3 -10 0 -11 14 -4 10 6 29 8 41 6 27 -5
60 11 60 29 0 9 7 12 19 9 22 -6 52 22 45 42 -8 21 -21 19 -47 -8z m29 -12
c-23 -17 -36 -19 -36 -6 0 11 18 19 40 20 11 0 10 -3 -4 -14z m-70 -41 c-11
-7 -22 -11 -25 -8 -3 3 3 12 13 20 11 7 22 11 25 8 3 -3 -3 -12 -13 -20z"/>
<path d="M1185 1635 c2 -46 11 -53 12 -10 1 19 -2 37 -7 40 -4 2 -6 -11 -5
-30z"/>
<path d="M1923 1633 c-7 -2 -13 -12 -13 -21 0 -11 3 -13 8 -6 4 6 16 16 27 22
20 12 3 16 -22 5z"/>
<path d="M1361 1376 c-239 -139 -441 -258 -448 -265 -10 -9 -13 -76 -13 -304
l0 -292 -55 -94 c-31 -52 -52 -97 -48 -101 16 -14 93 -53 96 -49 3 2 25 40 50
83 l45 79 413 238 c228 132 417 239 421 239 5 0 8 157 8 348 0 336 -3 375 -29
371 -4 0 -201 -114 -440 -253z m437 85 l-2 -126 -3 103 c-2 63 -7 100 -13 97
-6 -4 -10 -124 -10 -303 l-1 -297 -361 -208 c-198 -114 -363 -205 -366 -202
-3 3 2 13 11 23 10 10 17 21 17 25 0 3 -20 18 -45 33 -25 14 -45 28 -45 30 0
3 7 19 16 36 9 16 11 27 5 24 -7 -4 -11 1 -11 13 0 12 5 21 10 21 6 0 10 -3
10 -7 0 -13 65 -53 86 -53 19 1 19 1 0 15 -10 8 -22 12 -26 10 -4 -3 -16 5
-26 16 -15 17 -19 36 -19 93 1 61 6 82 39 150 22 45 57 97 82 123 72 71 165
103 195 67 7 -9 24 -20 37 -25 21 -8 23 -14 18 -39 -5 -30 7 -42 17 -17 4 11
158 106 250 154 4 2 7 -2 7 -10 0 -8 -53 -45 -117 -82 -145 -83 -166 -101
-152 -127 14 -25 3 -67 -23 -95 -12 -13 -18 -26 -14 -30 4 -4 12 0 17 9 5 10
42 36 82 59 40 23 100 59 135 80 35 22 65 39 67 39 2 0 1 -8 -1 -17 -3 -10
-64 -52 -136 -93 -73 -41 -144 -85 -159 -98 -25 -20 -28 -21 -31 -5 -5 21 19
91 38 114 10 11 11 18 3 26 -7 7 -8 17 -2 28 7 12 -1 26 -35 61 -25 24 -50 44
-56 44 -13 0 -116 -68 -116 -76 0 -4 11 1 25 10 21 14 25 14 25 2 0 -8 -23
-28 -51 -45 -58 -37 -87 -89 -96 -177 -5 -44 -3 -54 9 -54 9 0 21 7 28 16 11
12 11 15 -1 12 -16 -3 -25 44 -13 70 4 10 8 24 9 33 3 26 37 69 49 62 6 -3 8
-2 4 2 -12 13 65 55 79 44 7 -7 14 -6 19 2 5 8 3 9 -6 4 -9 -5 -11 -4 -6 3 4
7 14 12 22 12 8 0 26 7 40 16 18 13 23 13 19 3 -9 -22 -84 -71 -97 -63 -7 4
-8 3 -4 -4 4 -7 3 -12 -2 -12 -5 0 -25 -11 -45 -24 -19 -13 -37 -23 -39 -21
-7 7 -2 -81 6 -94 11 -17 62 -7 88 16 20 18 58 28 58 15 0 -8 -139 -82 -155
-83 -5 0 -18 -10 -27 -23 -17 -23 -17 -25 0 -46 l18 -22 58 32 c31 18 60 30
63 27 3 -3 -10 -14 -29 -23 -25 -14 -29 -19 -15 -22 9 -2 17 -7 17 -10 0 -6
-52 -29 -102 -45 -19 -7 -53 -65 -43 -75 3 -4 14 4 24 17 12 16 20 20 23 11 4
-12 42 5 171 80 24 14 58 33 75 43 22 12 32 25 32 40 0 19 16 33 77 68 43 24
86 49 98 56 11 6 34 19 51 28 17 9 41 25 52 35 12 11 25 20 30 20 18 0 7 35
-21 67 -33 36 -37 35 -114 -14 -29 -18 -55 -33 -58 -33 -4 0 -19 -8 -33 -18
-29 -20 -62 -34 -62 -27 0 11 83 64 91 59 5 -3 9 -1 9 5 0 5 17 20 38 32 20
13 39 27 40 31 2 5 7 6 11 4 9 -6 77 51 69 59 -3 4 -15 -2 -25 -12 -27 -27
-91 -58 -100 -49 -10 9 16 29 79 62 49 25 68 55 48 79 -15 18 -55 4 -128 -42
-29 -19 -63 -36 -74 -38 -12 -3 -31 -14 -44 -25 -13 -13 -24 -17 -28 -11 -4 5
4 16 16 22 13 7 41 22 63 34 130 69 148 83 148 119 0 14 8 33 18 42 24 21 24
40 2 52 -11 7 -23 6 -35 -2 -16 -9 -22 -7 -33 8 -16 21 5 30 -235 -109 -120
-69 -143 -85 -122 -85 11 0 255 136 321 178 21 15 23 14 20 -2 -5 -20 -281
-186 -311 -186 -52 0 -174 -81 -163 -109 3 -9 3 -12 -1 -8 -4 4 -13 2 -21 -4
-10 -9 -13 -7 -13 8 0 10 14 27 31 37 44 26 30 30 -22 6 -86 -39 -94 -50 -95
-131 l-1 -72 19 24 c16 19 18 20 11 4 -4 -11 -8 -58 -8 -105 0 -54 -4 -88 -12
-93 -6 -4 -11 -27 -11 -51 0 -24 -5 -53 -10 -63 -9 -15 -7 -19 8 -20 10 -1 29
-9 43 -17 19 -13 23 -24 22 -56 -1 -22 -7 -46 -13 -52 -7 -7 -12 -9 -12 -4 0
19 -62 -55 -91 -109 -17 -33 -33 -61 -35 -63 -1 -2 -14 4 -28 14 -31 20 -29
30 22 118 41 69 42 72 43 144 0 42 3 52 15 48 12 -5 14 22 15 167 0 95 1 196
2 226 l2 53 405 234 c223 129 407 240 409 247 3 8 -1 8 -13 -2 -9 -8 -20 -11
-24 -7 -8 9 35 43 54 43 11 0 14 -24 12 -126z m-78 80 c0 -5 -7 -11 -15 -15
-15 -5 -20 5 -8 17 9 10 23 9 23 -2z m-54 -37 c-30 -21 -42 -17 -15 5 13 11
26 17 29 14 3 -2 -4 -11 -14 -19z m-51 -24 c-3 -5 -16 -15 -28 -21 -22 -12
-22 -12 -3 10 19 21 43 30 31 11z m-90 -50 c-7 -12 -65 -43 -65 -35 0 5 61 45
68 45 2 0 0 -5 -3 -10z m-105 -66 c-45 -19 -51 -17 -15 5 17 10 34 16 39 13 5
-2 -6 -11 -24 -18z m230 -8 c0 -18 -160 -110 -172 -98 -5 5 23 28 74 59 93 57
98 59 98 39z m-300 -24 c0 -7 -58 -46 -70 -47 -3 0 -12 -4 -20 -10 -13 -8 -13
-7 -1 8 7 9 19 17 25 17 6 0 22 9 36 20 28 22 30 23 30 12z m260 -54 c0 -18
-229 -148 -247 -141 -9 4 26 29 94 69 59 35 115 67 123 73 21 14 30 13 30 -1z
m-380 -23 c-7 -9 -15 -13 -17 -11 -7 7 7 26 19 26 6 0 6 -6 -2 -15z m224 -24
c-28 -25 -121 -69 -132 -62 -7 4 15 22 61 48 39 23 74 37 76 32 2 -6 -1 -14
-5 -18z m-309 -25 c-16 -13 -33 -22 -37 -19 -5 2 -8 0 -8 -5 0 -11 -61 -42
-82 -42 -7 1 3 9 22 18 19 10 53 30 75 44 50 34 70 36 30 4z m-149 -88 c-8 -5
-18 -7 -21 -6 -2 2 -12 -8 -22 -21 -13 -19 -17 -48 -18 -123 -1 -54 -5 -101
-9 -105 -4 -4 -6 44 -5 106 1 97 4 116 21 133 10 10 23 16 27 13 5 -2 12 2 15
11 3 8 11 12 17 8 8 -5 7 -10 -5 -16z m314 -22 c0 -4 -68 -46 -76 -46 -11 0
-2 24 14 36 15 12 62 20 62 10z m-259 -28 c2 -36 -2 -50 -19 -74 -22 -29 -42
-38 -42 -18 0 9 9 18 20 21 16 4 20 14 20 49 0 44 19 63 21 22z m489 9 c0 -13
-4 -15 -82 -61 -72 -42 -63 -7 10 37 64 40 72 42 72 24z m-527 -37 c-3 -11 -9
-20 -14 -20 -10 0 -12 24 -2 33 13 13 21 7 16 -13z m351 -9 c3 -5 -12 -20 -34
-35 -35 -23 -40 -24 -40 -9 0 10 12 25 28 35 32 19 39 21 46 9z m320 -41 c-5
-5 -87 -54 -183 -110 -156 -90 -245 -150 -225 -150 3 0 31 14 60 31 39 22 54
26 54 16 0 -8 -27 -30 -59 -49 -51 -30 -61 -33 -64 -19 -4 13 -6 12 -12 -6 -4
-12 -34 -38 -66 -57 -50 -29 -59 -32 -59 -18 0 12 16 24 45 36 47 20 78 46 54
46 -8 0 -4 9 9 23 12 13 20 26 17 29 -4 3 7 15 23 27 32 23 47 27 37 11 -11
-18 8 -11 32 12 36 34 337 206 342 195 2 -5 -1 -13 -5 -17z m-413 -17 c-14
-27 -111 -78 -111 -59 0 8 24 28 53 45 60 35 71 38 58 14z m99 5 c-1 -7 -48
-41 -105 -74 -78 -46 -105 -57 -105 -45 0 10 38 38 98 73 105 61 112 64 112
46z m-43 -83 c0 -8 -6 -16 -13 -19 -19 -7 -29 14 -13 25 20 12 26 11 26 -6z
m-3 -50 c-8 -21 -44 -40 -44 -24 0 12 29 38 42 39 4 0 5 -7 2 -15z m-64 -37
c0 -19 -130 -92 -142 -80 -6 6 14 24 59 50 76 45 83 47 83 30z"/>
<path d="M1026 643 c-6 -14 -5 -15 5 -6 7 7 10 15 7 18 -3 3 -9 -2 -12 -12z"/>
<path d="M238 1599 c-10 -5 -18 -16 -18 -24 0 -8 -7 -11 -21 -8 -14 4 -25 -1
-35 -16 -8 -11 -24 -21 -34 -21 -10 0 -26 -9 -34 -21 -8 -12 -19 -18 -24 -15
-6 3 -20 -2 -32 -12 -20 -16 -20 -19 -7 -31 18 -15 57 1 57 23 0 9 8 12 25 9
20 -4 25 0 31 21 5 21 9 24 20 15 10 -8 19 -5 39 15 15 15 30 24 35 21 4 -2
14 3 21 13 12 15 12 16 -2 5 -9 -7 -19 -10 -23 -6 -4 4 3 15 16 25 25 19 14
24 -14 7z m-28 -48 c0 -10 -24 -21 -43 -21 -7 0 -3 7 7 15 22 17 36 19 36 6z
m-70 -40 c0 -11 -31 -24 -39 -16 -3 3 1 10 9 15 19 12 30 12 30 1z m-75 -47
c-10 -7 -22 -11 -27 -8 -5 3 -1 12 9 19 10 7 22 11 27 8 5 -4 1 -12 -9 -19z"/>
<path d="M1864 1595 c-18 -14 -17 -15 11 -9 l30 6 -25 -21 c-15 -12 -19 -21
-11 -21 18 0 40 31 34 47 -7 17 -15 16 -39 -2z"/>
<path d="M1073 1482 c-3 -13 -13 -17 -34 -16 -16 1 -27 -1 -25 -4 4 -7 -26
-39 -31 -34 -10 9 -33 -1 -38 -17 -3 -10 -11 -18 -18 -18 -33 1 -46 -5 -52
-23 -4 -11 -11 -18 -16 -15 -13 8 -49 -13 -49 -29 0 -9 -8 -12 -24 -9 -15 3
-28 -2 -37 -14 -8 -10 -20 -18 -26 -19 -28 -2 -32 -5 -37 -22 -4 -11 -15 -18
-28 -18 -13 1 -27 -8 -33 -21 -8 -15 -15 -19 -22 -12 -7 7 -18 3 -34 -10 -22
-18 -23 -21 -8 -36 16 -16 18 -16 40 6 13 13 28 24 34 24 21 2 45 18 45 30 0
8 7 11 18 9 9 -3 27 4 39 15 12 12 29 21 37 21 9 0 21 9 28 19 6 10 17 17 24
14 7 -3 24 7 38 21 13 15 26 22 28 16 2 -6 14 -1 28 12 25 23 27 24 55 27 8 0
17 12 21 24 4 19 11 23 30 19 16 -3 26 1 30 12 3 9 11 13 18 9 6 -3 8 -2 3 2
-4 5 0 19 8 32 10 14 11 23 4 23 -6 0 -13 -8 -16 -18z m-23 -37 c-7 -8 -20
-15 -29 -15 -13 1 -13 3 3 15 26 19 42 19 26 0z m-60 -34 c0 -11 -31 -24 -39
-16 -3 3 1 10 9 15 19 12 30 12 30 1z m-60 -31 c0 -12 -35 -31 -44 -23 -3 3 2
12 12 19 20 16 32 17 32 4z m-75 -49 c-3 -6 -14 -11 -23 -11 -15 1 -15 2 2 15
21 16 32 13 21 -4z m-55 -30 c0 -11 -31 -24 -39 -16 -3 3 1 10 9 15 19 12 30
12 30 1z m-70 -43 c-22 -18 -40 -23 -40 -12 0 11 31 31 48 31 11 0 9 -6 -8
-19z m-60 -28 c0 -5 -9 -14 -20 -20 -22 -12 -27 -1 -8 18 14 14 28 16 28 2z
m-72 -42 c-3 -7 -13 -15 -24 -17 -16 -3 -17 -1 -5 13 16 19 34 21 29 4z"/>
<path d="M4 1434 c-1 -13 2 -21 7 -18 11 6 12 31 2 37 -5 3 -9 -6 -9 -19z"/>
<path d="M2940 1439 c-19 -10 -41 -17 -48 -14 -7 3 -11 1 -7 -4 9 -16 -6 -39
-23 -36 -21 3 -54 -24 -46 -37 4 -6 -2 -8 -13 -4 -13 4 -25 0 -34 -10 -13 -16
-12 -16 9 -5 26 14 29 5 5 -21 -16 -18 -16 -18 0 -12 10 3 22 15 28 26 8 15
14 17 24 8 15 -13 45 11 45 37 0 12 3 13 14 4 10 -9 19 -6 37 13 13 13 28 22
34 19 7 -2 18 3 25 12 8 9 8 15 2 15 -6 0 -14 -5 -17 -10 -4 -6 -11 -8 -16 -4
-6 3 -3 12 8 19 10 7 21 11 25 9 5 -3 8 0 8 5 0 16 -20 12 -60 -10z m0 -23 c0
-8 -31 -36 -41 -36 -17 0 -9 17 14 28 27 13 27 13 27 8z m-83 -63 c-9 -9 -19
-14 -23 -11 -10 10 6 28 24 28 15 0 15 -1 -1 -17z"/>
<path d="M1185 1439 c-4 -6 -5 -12 -2 -15 2 -3 7 2 10 11 7 17 1 20 -8 4z"/>
<path d="M1911 1398 c-6 -10 -17 -18 -25 -18 -7 0 -20 -7 -27 -17 -13 -15 -12
-15 8 -5 26 14 33 15 33 3 0 -5 -12 -14 -27 -19 l-28 -10 27 -1 c18 -1 29 5
33 18 3 11 14 18 27 17 12 0 23 5 26 12 3 11 0 12 -17 3 -28 -15 -27 2 2 22
22 15 22 15 1 14 -12 -1 -27 -9 -33 -19z"/>
<path d="M507 1169 c-9 -6 -17 -20 -17 -31 0 -17 -3 -19 -12 -10 -16 16 -21
15 -48 -8 -12 -11 -27 -17 -31 -14 -5 3 -9 0 -9 -6 0 -6 -4 -9 -9 -5 -6 3 -15
-4 -21 -15 -6 -11 -15 -18 -20 -15 -6 3 -21 -5 -35 -19 -14 -14 -26 -25 -28
-24 -9 7 -47 -13 -47 -25 0 -10 -8 -13 -25 -9 -15 2 -25 0 -25 -7 0 -7 -4 -9
-10 -6 -5 3 -10 -3 -10 -15 0 -18 -3 -19 -20 -10 -18 10 -22 7 -33 -20 -8 -17
-16 -28 -19 -24 -13 13 -47 -8 -67 -41 -11 -19 -16 -35 -10 -35 6 0 13 9 16
20 4 15 9 17 23 10 15 -8 23 -5 38 15 11 14 27 25 36 25 9 0 24 8 34 18 10 10
28 18 40 17 12 -1 19 2 17 6 -6 8 19 30 31 28 22 -4 33 3 39 22 4 11 9 18 12
15 7 -7 63 22 63 33 0 5 8 8 17 7 19 -3 43 16 43 33 0 16 42 51 53 44 5 -3 -1
-15 -14 -26 l-24 -19 25 16 c14 9 40 22 58 30 34 16 39 27 19 44 -8 7 -18 7
-30 1z m20 -26 c-9 -9 -20 -13 -24 -9 -4 4 -1 11 7 16 25 16 35 11 17 -7z
m-113 -56 c-6 -16 -44 -40 -44 -28 0 6 10 17 22 25 27 19 29 19 22 3z m-69
-47 c-19 -21 -51 -28 -40 -9 6 9 38 26 54 28 2 1 -4 -8 -14 -19z m-78 -47 c-9
-9 -19 -14 -23 -11 -10 10 6 28 24 28 15 0 15 -1 -1 -17z m-47 -21 c0 -13 -39
-32 -45 -22 -3 5 3 13 12 19 22 13 33 14 33 3z m-70 -42 c0 -11 -31 -22 -39
-14 -3 4 0 9 7 11 6 3 10 9 7 14 -4 5 1 6 9 3 9 -3 16 -10 16 -14z m-70 -45
c-14 -16 -40 -20 -40 -6 0 10 17 19 39 20 11 1 11 -2 1 -14z"/>
<path d="M480 969 c-306 -178 -326 -191 -338 -226 -7 -21 -17 -42 -22 -47 -26
-26 -5 -22 43 7 28 19 188 112 355 207 l302 173 0 39 c0 21 -3 38 -7 37 -5 0
-154 -86 -333 -190z m310 140 c0 -17 -20 -49 -31 -49 -16 0 -22 29 -9 45 14
17 40 20 40 4z m-60 -37 c0 -21 -18 -42 -37 -42 -18 0 -16 25 3 44 21 21 34
20 34 -2z m-60 -36 c0 -19 -29 -48 -41 -41 -13 8 -11 29 3 43 16 16 38 15 38
-2z m-65 -46 c3 -6 -2 -13 -12 -17 -10 -3 -26 -13 -35 -21 -10 -8 -18 -12 -18
-8 0 4 -15 -4 -33 -18 -19 -14 -36 -24 -39 -21 -3 3 -11 -1 -18 -10 -7 -8 -16
-15 -21 -15 -5 0 -28 -12 -52 -27 -23 -15 -45 -26 -49 -25 -5 1 -8 -3 -8 -8 0
-6 -5 -10 -10 -10 -6 0 -29 -12 -53 -27 -46 -30 -87 -53 -93 -53 -11 0 19 42
34 48 15 6 122 67 162 92 19 12 132 78 185 107 46 25 52 27 60 13z"/>
<path d="M799 1053 c0 -5 -1 -113 -2 -242 l-2 -234 -30 -19 c-16 -10 -41 -22
-55 -28 -38 -16 -102 -52 -121 -68 -32 -28 -166 -97 -141 -73 12 12 22 28 22
37 0 8 8 18 18 21 9 4 28 14 42 23 41 28 85 54 90 55 3 1 21 11 40 23 19 12
37 22 40 22 3 0 11 9 17 19 10 16 10 27 -2 53 -8 18 -14 29 -15 23 0 -5 -5 -4
-12 3 -12 12 -76 -9 -90 -31 -5 -8 -8 -7 -8 4 0 9 10 24 23 33 l22 17 -25 -7
c-22 -6 -23 -5 -11 10 7 9 20 16 27 16 8 0 14 5 14 10 0 6 7 10 15 10 9 0 27
11 41 25 24 24 24 26 8 42 -18 19 -44 26 -44 13 0 -4 -8 -11 -17 -14 -16 -6
-16 -6 0 12 9 10 18 27 20 39 1 12 9 29 17 38 21 26 1 49 -46 52 -32 1 -65
-14 -189 -84 -153 -87 -207 -123 -186 -123 24 0 9 -19 -33 -43 -40 -22 -45
-23 -49 -8 -3 9 -5 -90 -5 -219 0 -129 3 -226 7 -215 5 11 6 25 4 32 -3 8 7
11 31 8 20 -2 43 3 53 12 17 13 16 13 -4 4 -26 -13 -33 -14 -33 -3 0 5 23 21
50 36 50 27 69 22 27 -8 -22 -16 -22 -16 6 -4 15 6 30 21 33 34 6 23 104 84
104 64 0 -6 -14 -19 -31 -28 -17 -9 -38 -23 -47 -30 -15 -12 -15 -13 6 -9 12
3 20 1 16 -4 -3 -5 -9 -9 -14 -9 -5 0 -28 -13 -52 -29 -71 -47 -152 -88 -166
-83 -9 3 -12 58 -12 228 0 211 -1 224 -18 215 -9 -5 -21 -10 -27 -11 -35 -6
-35 -13 -33 -268 l3 -252 370 214 370 215 3 245 c1 162 -1 246 -8 246 -5 0
-10 -3 -11 -7z m-190 -147 c-22 -19 -323 -185 -327 -181 -9 9 7 20 168 114 85
49 157 85 159 80 1 -6 1 -12 0 -13z m61 1 c0 -7 -28 -28 -62 -47 -79 -44 -78
-44 -78 -31 0 5 30 28 68 50 78 47 72 44 72 28z m-32 -62 c-4 -21 -312 -198
-317 -183 -2 7 0 13 5 15 5 2 77 43 159 92 83 49 151 90 153 90 2 1 2 -6 0
-14z m-120 -27 c-6 -18 -322 -199 -327 -187 -4 13 -19 3 149 99 80 45 149 86
155 91 13 13 27 11 23 -3z m172 -32 c0 -19 -314 -199 -319 -183 -2 6 0 12 5
14 5 2 77 43 159 92 83 49 151 90 153 90 1 1 2 -5 2 -13z m-176 -68 c-4 -5 -8
-7 -11 -4 -3 3 -20 -4 -37 -15 l-31 -21 28 25 c27 23 62 33 51 15z m64 -53
c-22 -23 -314 -181 -317 -172 -2 6 0 13 5 15 5 2 77 43 159 91 83 48 152 83
154 79 1 -5 1 -11 -1 -13z m-447 -38 c-16 -16 -26 0 -10 19 9 11 15 12 17 4 2
-6 -1 -17 -7 -23z m218 11 c12 7 21 8 21 4 0 -12 -29 -36 -65 -55 -16 -9 -26
-16 -22 -17 4 0 21 7 37 15 20 10 30 12 30 4 0 -6 -9 -13 -20 -16 -11 -3 -20
-10 -20 -16 0 -6 -3 -8 -6 -4 -4 3 -13 -1 -21 -9 -8 -8 -19 -12 -24 -9 -4 3
-11 -6 -15 -21 -5 -21 -2 -31 13 -44 20 -16 20 -17 3 -28 -10 -6 -21 -7 -26
-2 -5 5 -15 5 -24 -1 -13 -9 -12 -10 3 -5 9 3 17 1 17 -5 0 -5 -8 -13 -17 -16
-10 -4 -21 -11 -24 -16 -4 -6 -6 38 -5 96 2 106 9 135 26 107 8 -13 10 -13 10
1 0 8 19 25 42 36 39 20 43 21 54 5 11 -14 16 -15 33 -4z m339 10 c-7 -20
-322 -199 -327 -186 -2 7 0 13 5 15 5 2 77 43 159 92 83 49 154 89 158 90 5 1
7 -5 5 -11z m22 -31 c0 -11 -497 -307 -516 -307 -26 0 37 41 256 170 140 82
256 149 258 149 1 1 2 -5 2 -12z m-570 -16 c0 -12 -20 -25 -27 -18 -7 7 6 27
18 27 5 0 9 -4 9 -9z m370 -5 c0 -2 -8 -10 -17 -17 -16 -13 -17 -12 -4 4 13
16 21 21 21 13z m-379 -59 c-16 -16 -26 0 -10 19 9 11 15 12 17 4 2 -6 -1 -17
-7 -23z m314 13 c-3 -5 -12 -10 -18 -10 -7 0 -6 4 3 10 19 12 23 12 15 0z
m-305 -39 c0 -12 -20 -25 -27 -18 -7 7 6 27 18 27 5 0 9 -4 9 -9z m224 -10
c-10 -10 -21 -16 -24 -14 -3 3 4 11 14 19 28 20 33 17 10 -5z m-34 -21 c0 -5
-5 -10 -11 -10 -5 0 -7 5 -4 10 3 6 8 10 11 10 2 0 4 -4 4 -10z m-199 -33
c-16 -16 -26 0 -10 19 9 11 15 12 17 4 2 -6 -1 -17 -7 -23z m209 0 c0 -8 -10
-19 -22 -25 -13 -6 -47 -25 -77 -42 -30 -18 -51 -26 -49 -18 3 10 132 96 146
98 1 0 2 -6 2 -13z m-200 -26 c0 -12 -20 -25 -27 -18 -7 7 6 27 18 27 5 0 9
-4 9 -9z m-3 -56 c-4 -8 -11 -15 -17 -15 -14 0 -13 27 3 33 16 6 21 1 14 -18z
m3 -34 c0 -12 -20 -25 -27 -18 -7 7 6 27 18 27 5 0 9 -4 9 -9z m-3 -56 c-4 -8
-11 -15 -17 -15 -14 0 -13 27 3 33 16 6 21 1 14 -18z m3 -34 c0 -12 -20 -25
-27 -18 -7 7 6 27 18 27 5 0 9 -4 9 -9z m-23 -53 c-19 -12 -26 -9 -24 11 1 15
4 17 19 8 13 -8 14 -13 5 -19z"/>
<path d="M267 619 c-22 -11 -37 -23 -34 -25 5 -5 77 35 77 42 0 6 -1 5 -43
-17z"/>
<path d="M835 1000 c-3 -6 1 -7 9 -4 22 8 20 -13 -1 -25 -10 -6 -13 -11 -7
-11 17 0 37 27 29 40 -8 13 -22 13 -30 0z"/>
<path d="M1894 885 c32 -20 60 -34 63 -32 8 8 -81 67 -101 67 -14 0 -1 -12 38
-35z"/>
<path d="M1770 853 c-25 -15 -47 -30 -50 -33 -3 -3 -18 -12 -35 -19 -16 -7
-25 -16 -18 -18 7 -2 32 7 57 22 44 25 46 26 71 9 26 -17 28 -17 61 1 39 21
41 26 15 42 -14 9 -24 8 -47 -8 -33 -21 -44 -24 -44 -9 0 6 6 10 13 10 7 0 22
7 33 15 34 26 -7 17 -56 -12z"/>
<path d="M64 811 c-60 -36 -82 -151 -33 -166 26 -9 61 23 89 80 25 52 25 81 1
95 -25 13 -20 13 -57 -9z m17 -33 c-5 -13 -17 -23 -29 -24 -19 -1 -20 0 -5 22
20 32 45 33 34 2z m49 6 c0 -5 -47 -91 -57 -103 -6 -8 -43 32 -43 47 0 13 3
12 19 -2 19 -17 20 -16 43 23 20 36 38 52 38 35z m-97 -94 c16 -19 16 -20 -3
-20 -13 0 -20 7 -20 20 0 11 1 20 3 20 1 0 10 -9 20 -20z"/>
<path d="M1885 816 c-18 -13 -18 -14 3 -25 16 -8 27 -8 46 0 24 11 24 13 8 25
-22 17 -34 17 -57 0z"/>
<path d="M1740 800 c-24 -15 18 -42 44 -28 12 6 21 7 25 1 15 -24 46 -31 66
-17 17 13 18 16 5 25 -8 5 -27 7 -42 5 -16 -3 -31 1 -38 9 -14 17 -38 19 -60
5z"/>
<path d="M830 776 c0 -2 9 -6 20 -9 11 -3 18 -1 14 4 -5 9 -34 13 -34 5z"/>
<path d="M1616 765 c-25 -19 -14 -30 14 -15 17 9 26 8 45 -4 30 -19 36 -20 60
-2 18 13 18 14 -3 25 -16 9 -27 9 -43 0 -15 -8 -24 -8 -32 0 -14 14 -18 14
-41 -4z"/>
<path d="M1765 746 c-18 -13 -18 -14 3 -25 16 -8 27 -8 46 0 24 11 24 13 8 25
-22 17 -34 17 -57 0z"/>
<path d="M836 733 c-7 -17 4 -16 28 2 18 13 18 14 -3 12 -11 -1 -23 -7 -25
-14z"/>
<path d="M1625 733 c-17 -12 -18 -15 -5 -23 18 -11 32 -12 54 -4 22 9 20 19
-7 31 -17 8 -28 7 -42 -4z"/>
<path d="M1552 727 c-12 -7 -20 -16 -16 -19 8 -8 54 12 54 24 0 11 -11 10 -38
-5z"/>
<path d="M1713 717 c-28 -12 -29 -24 -3 -32 21 -7 60 2 60 13 0 17 -36 29 -57
19z"/>
<path d="M1840 720 c-13 -9 -13 -12 3 -25 15 -11 24 -11 44 -2 23 10 24 12 7
24 -21 16 -34 16 -54 3z"/>
<path d="M238 713 c7 -3 16 -2 19 1 4 3 -2 6 -13 5 -11 0 -14 -3 -6 -6z"/>
<path d="M195 700 c-3 -6 1 -7 9 -4 18 7 21 14 7 14 -6 0 -13 -4 -16 -10z"/>
<path d="M646 701 c-4 -5 3 -7 14 -4 23 6 26 13 6 13 -8 0 -17 -4 -20 -9z"/>
<path d="M1506 702 c-3 -5 -25 -19 -50 -32 -25 -12 -43 -27 -40 -32 3 -4 18 1
34 12 15 11 32 20 37 20 16 1 44 28 34 34 -5 4 -12 3 -15 -2z"/>
<path d="M1545 689 c-16 -11 -37 -24 -45 -29 -13 -9 -13 -11 0 -20 8 -6 26 -9
39 -6 14 2 35 -3 48 -11 20 -13 29 -14 51 -4 l27 13 -25 13 c-17 9 -30 10 -42
4 -13 -7 -24 -4 -40 11 -24 22 -18 26 13 10 13 -8 25 -7 41 1 21 11 21 12 3
25 -24 18 -33 17 -70 -7z"/>
<path d="M1781 686 c-18 -22 21 -41 51 -25 21 11 21 12 3 25 -24 18 -40 18
-54 0z"/>
<path d="M1647 679 c-18 -11 -18 -12 1 -25 17 -11 26 -12 47 -2 25 11 25 13 9
25 -21 16 -33 16 -57 2z"/>
<path d="M1870 670 c-13 -9 -13 -11 0 -20 8 -5 22 -10 30 -10 8 0 22 5 30 10
13 9 13 11 0 20 -8 5 -22 10 -30 10 -8 0 -22 -5 -30 -10z"/>
<path d="M1725 654 c-17 -13 -18 -16 -5 -24 8 -5 22 -10 30 -10 8 0 22 5 30
10 13 8 12 11 -5 24 -11 9 -22 15 -25 15 -3 0 -14 -6 -25 -15z"/>
<path d="M1815 636 c-18 -13 -18 -14 3 -25 17 -9 27 -9 44 0 21 11 21 12 3 25
-10 8 -22 14 -25 14 -3 0 -15 -6 -25 -14z"/>
<path d="M1370 619 c-17 -12 -20 -19 -10 -18 20 0 54 26 43 32 -5 3 -20 -3
-33 -14z"/>
<path d="M1443 633 c-19 -7 -16 -21 7 -33 15 -8 25 -7 41 4 l21 14 -20 11
c-22 12 -30 12 -49 4z"/>
<path d="M1897 611 c-63 -37 -64 -38 -35 -52 21 -9 30 -8 52 6 25 16 25 18 9
31 -21 16 -10 18 16 4 25 -13 64 14 41 30 -21 14 -29 12 -83 -19z"/>
<path d="M2342 627 c9 -7 25 -17 35 -23 10 -7 16 -14 13 -16 -22 -22 -896
-518 -911 -518 -11 0 -124 60 -252 134 -238 138 -293 167 -248 127 13 -12 29
-21 36 -21 7 0 15 -4 17 -8 6 -16 428 -252 451 -252 12 0 39 11 59 25 20 14
39 25 42 25 3 0 96 53 208 118 112 65 292 170 400 233 109 63 200 120 203 128
7 17 -32 61 -54 61 -14 -1 -14 -2 1 -13z"/>
<path d="M1661 616 c-10 -12 -8 -17 8 -26 29 -15 68 5 50 26 -6 8 -19 14 -29
14 -10 0 -23 -6 -29 -14z"/>
<path d="M1527 609 c-18 -10 -18 -12 2 -25 15 -11 26 -12 40 -4 24 12 34 13
27 1 -3 -5 1 -14 9 -21 16 -13 65 -6 65 10 0 13 -38 32 -50 25 -6 -3 -20 1
-32 9 -26 19 -36 19 -61 5z"/>
<path d="M1763 607 c-28 -12 -29 -24 -3 -32 21 -7 60 2 60 13 0 17 -36 29 -57
19z"/>
<path d="M1384 595 c-16 -13 -17 -16 -4 -25 20 -13 43 -13 58 2 9 9 7 14 -6
24 -22 17 -24 17 -48 -1z"/>
<path d="M1302 580 c-12 -11 -27 -20 -34 -21 -7 0 -33 -13 -58 -29 -25 -16
-60 -36 -77 -46 -18 -9 -30 -20 -27 -25 3 -5 18 0 34 11 15 11 32 20 37 20 5
0 18 8 29 18 11 9 46 30 77 46 31 16 57 32 57 37 0 15 -15 10 -38 -11z"/>
<path d="M1470 575 l-23 -12 21 -12 c27 -14 34 -14 56 2 17 12 16 14 -6 24
-18 8 -30 8 -48 -2z"/>
<path d="M1695 566 c-18 -13 -18 -14 3 -25 30 -16 69 3 51 25 -14 18 -30 18
-54 0z"/>
<path d="M1323 563 c-18 -7 -16 -16 7 -31 16 -10 24 -10 39 0 35 21 -5 48 -46
31z"/>
<path d="M1669 479 c-85 -49 -158 -90 -164 -93 -5 -2 -1 -11 10 -20 23 -17 13
-21 -15 -6 -15 8 -31 4 -75 -21 -59 -33 -66 -44 -35 -54 40 -13 81 15 44 29
-9 4 -14 9 -11 12 3 3 15 1 26 -6 18 -9 47 4 213 100 106 62 196 115 201 119
4 4 -3 12 -16 18 -22 10 -42 1 -178 -78z"/>
<path d="M1540 550 c-13 -8 -12 -11 5 -24 11 -9 22 -15 25 -15 3 0 14 6 25 15
17 13 18 16 5 24 -8 5 -22 10 -30 10 -8 0 -22 -5 -30 -10z"/>
<path d="M34 536 c-3 -8 -12 -12 -20 -9 -8 3 -14 0 -14 -7 0 -6 5 -8 10 -5 14
9 13 -8 -2 -23 -9 -9 -9 -12 1 -12 7 0 15 9 18 20 3 11 8 18 12 16 4 -3 7 4 7
15 0 23 -5 24 -12 5z"/>
<path d="M1406 537 c-17 -12 -16 -14 7 -24 14 -7 29 -8 38 -2 19 12 32 11 24
0 -10 -18 33 -33 57 -20 21 11 21 12 3 26 -11 7 -26 11 -33 8 -8 -3 -23 2 -35
10 -26 18 -38 19 -61 2z"/>
<path d="M1643 537 c-28 -12 -29 -24 -3 -32 21 -7 60 2 60 13 0 17 -36 29 -57
19z"/>
<path d="M1266 527 c-16 -12 -16 -14 -2 -26 13 -11 22 -12 44 -2 26 12 26 13
7 27 -23 17 -27 17 -49 1z"/>
<path d="M1346 505 c-18 -14 -18 -15 6 -26 19 -8 31 -8 48 1 21 11 21 12 3 25
-23 18 -33 18 -57 0z"/>
<path d="M1577 499 c-18 -10 -18 -12 2 -25 16 -11 26 -12 41 -4 24 13 26 26 4
34 -21 8 -26 7 -47 -5z"/>
<path d="M1759 446 c-119 -68 -141 -85 -134 -96 10 -15 147 -90 163 -89 13 1
12 3 -3 7 -43 14 -157 84 -148 92 17 17 239 140 252 140 7 0 29 -9 47 -21 19
-11 34 -18 34 -16 0 11 -68 47 -86 46 -11 -1 -67 -29 -125 -63z"/>
<path d="M1200 490 c-13 -8 -12 -11 5 -23 14 -11 25 -12 42 -4 27 12 29 22 7
31 -22 8 -36 7 -54 -4z"/>
<path d="M720 486 c0 -5 86 -56 95 -56 15 0 -8 19 -45 39 -41 21 -50 24 -50
17z"/>
<path d="M1423 483 c-19 -7 -16 -19 10 -30 17 -8 28 -7 42 4 17 12 18 15 5 23
-16 10 -37 12 -57 3z"/>
<path d="M1286 467 c-17 -12 -16 -14 7 -24 20 -9 29 -9 44 2 16 13 16 16 3 25
-20 13 -33 13 -54 -3z"/>
<path d="M1517 465 c-18 -13 -18 -14 3 -25 22 -12 60 -5 60 10 0 8 -32 31 -42
30 -2 0 -11 -7 -21 -15z"/>
<path d="M1145 456 c-18 -13 -18 -14 3 -25 17 -9 27 -9 44 0 21 11 21 12 3 25
-10 8 -22 14 -25 14 -3 0 -15 -6 -25 -14z"/>
<path d="M1059 442 c-13 -10 -36 -24 -51 -31 -23 -12 -38 -31 -24 -31 14 0
115 69 108 74 -5 3 -20 -2 -33 -12z"/>
<path d="M1365 446 c-18 -13 -18 -14 3 -25 17 -9 27 -9 44 0 21 11 21 12 3 25
-10 8 -22 14 -25 14 -3 0 -15 -6 -25 -14z"/>
<path d="M1228 436 c-16 -12 -16 -14 6 -25 18 -10 28 -10 46 -1 21 11 21 12 3
25 -22 18 -33 18 -55 1z"/>
<path d="M2018 433 c19 -15 20 -21 10 -33 -11 -12 -11 -12 4 -1 20 15 16 26
-15 42 -22 10 -22 10 1 -8z"/>
<path d="M1450 430 c-13 -8 -12 -11 5 -25 20 -17 13 -17 -28 0 -7 3 -21 -1
-32 -9 -19 -14 -19 -15 6 -26 23 -11 33 -9 73 15 49 29 56 39 30 49 -22 8 -36
7 -54 -4z"/>
<path d="M1080 420 c-13 -9 -13 -11 0 -20 8 -5 22 -10 30 -10 8 0 22 5 30 10
13 9 13 11 0 20 -8 5 -22 10 -30 10 -8 0 -22 -5 -30 -10z"/>
<path d="M1313 417 c-28 -12 -29 -24 -3 -32 21 -7 60 2 60 13 0 17 -36 29 -57
19z"/>
<path d="M1173 405 c-16 -13 -16 -16 -3 -25 21 -14 46 -12 59 3 17 22 -31 40
-56 22z"/>
<path d="M1025 386 c-18 -13 -18 -14 3 -25 17 -9 27 -9 44 0 21 11 21 12 3 25
-10 8 -22 14 -25 14 -3 0 -15 -6 -25 -14z"/>
<path d="M1245 376 c-18 -13 -18 -14 3 -25 17 -9 27 -9 43 0 13 7 24 7 28 2
15 -24 48 -32 67 -18 17 13 17 16 4 25 -8 6 -27 8 -41 6 -15 -3 -35 1 -45 9
-24 18 -36 18 -59 1z"/>
<path d="M1098 362 c-34 -20 -35 -30 -4 -38 14 -3 35 2 56 14 31 19 31 21 12
31 -27 14 -32 14 -64 -7z"/>
<path d="M1944 354 c-18 -14 -18 -15 4 -4 12 6 22 13 22 15 0 8 -5 6 -26 -11z"/>
<path d="M1167 331 l-47 -28 25 -11 c23 -11 32 -9 71 14 25 15 44 28 42 29
-28 23 -47 22 -91 -4z"/>
<path d="M1243 307 c-29 -17 -53 -35 -53 -39 0 -21 49 -17 93 7 57 32 63 41
38 54 -25 14 -17 16 -78 -22z"/>
<path d="M1894 324 c-18 -14 -18 -15 4 -4 12 6 22 13 22 15 0 8 -5 6 -26 -11z"/>
<path d="M34 306 c-3 -8 -13 -12 -22 -9 -14 4 -14 3 -3 -5 13 -9 13 -13 0 -28
-9 -11 -9 -15 -1 -10 13 8 46 66 37 66 -3 0 -8 -6 -11 -14z"/>
<path d="M952 294 c-7 -7 -12 -18 -12 -24 0 -5 -5 -10 -11 -10 -5 0 -8 -4 -5
-9 3 -5 -5 -16 -19 -25 -29 -19 -35 -2 -7 21 15 13 15 13 -5 3 -13 -6 -23 -14
-23 -19 0 -5 -11 -7 -25 -6 -17 2 -26 -3 -31 -18 -9 -30 -34 -57 -52 -57 -12
0 -12 3 -2 15 7 8 19 15 26 15 8 0 14 5 14 10 0 17 -20 11 -46 -15 -13 -13
-27 -25 -29 -25 -3 0 -12 0 -21 0 -9 0 -18 -8 -21 -19 -3 -12 -11 -17 -22 -14
-11 3 -26 -5 -37 -19 -11 -13 -28 -23 -39 -23 -11 0 -24 -10 -30 -22 -8 -15
-15 -19 -21 -13 -7 7 -18 3 -33 -11 -12 -12 -19 -24 -16 -27 4 -4 11 1 16 11
6 9 18 17 27 17 15 -1 15 -2 -2 -15 -16 -12 -17 -15 -4 -15 9 0 18 6 21 14 3
7 22 17 42 20 27 5 35 11 31 22 -4 11 -1 14 13 9 13 -4 25 2 37 17 11 13 28
23 39 23 11 0 24 9 30 21 5 11 16 19 23 16 7 -2 25 4 40 14 15 10 30 19 34 19
4 0 16 7 26 16 10 8 23 14 30 11 7 -2 12 1 12 8 0 6 4 9 9 5 6 -3 15 3 20 13
6 11 24 22 41 25 21 5 30 12 30 26 0 23 -31 33 -48 15z m38 -13 c0 -11 -31
-24 -39 -16 -3 3 1 10 9 15 19 12 30 12 30 1z m-132 -73 c-3 -7 -13 -15 -24
-17 -16 -3 -17 -1 -5 13 16 19 34 21 29 4z m-141 -85 c-9 -9 -20 -13 -24 -9
-4 4 1 14 11 22 25 18 35 8 13 -13z m-47 -21 c0 -13 -39 -32 -45 -22 -3 5 3
13 12 19 22 13 33 14 33 3z m-70 -41 c0 -5 -7 -12 -16 -15 -24 -9 -28 -7 -14
9 14 17 30 20 30 6z"/>
<path d="M1824 284 c-18 -14 -18 -15 4 -4 12 6 22 13 22 15 0 8 -5 6 -26 -11z"/>
<path d="M1320 280 c-13 -8 -12 -11 5 -25 20 -17 13 -17 -28 0 -7 3 -21 -1
-32 -9 -19 -14 -19 -15 5 -26 22 -9 33 -7 73 15 50 28 57 39 31 49 -22 8 -36
7 -54 -4z"/>
</g>
</svg>
