<svg xmlns="http://www.w3.org/2000/svg" width="1500" height="844" viewBox="0 0 1500 844" version="1.1"><path d="M 883.242 230.250 L 883.500 288.500 903.750 288.771 C 914.888 288.920, 924 289.221, 924 289.441 C 924 291.397, 916.738 309.760, 912.412 318.745 C 902.373 339.595, 892.377 353.570, 876.733 368.625 C 861.511 383.274, 842.612 394.883, 821.612 402.485 C 806.676 407.891, 808 409.592, 808 385 L 808 364 750 364 L 692 364 692 390.500 L 692 417 638 417 C 590.046 417, 584 416.828, 584 415.460 C 584 414.613, 583.097 412.151, 581.994 409.989 C 573.969 394.258, 554.202 390.703, 540.211 402.476 C 529.925 411.131, 529.219 430.210, 538.809 440.343 C 546.135 448.083, 559.473 450.734, 569.070 446.356 C 576.284 443.066, 584 433.889, 584 428.599 C 584 427.156, 588.323 427.010, 628.250 427.106 C 662.426 427.189, 671.817 427.471, 669.500 428.347 C 662.381 431.037, 644.639 440.222, 636.898 445.223 C 603.555 466.767, 578.439 500.628, 563.630 544 L 560.044 554.500 530.022 554.765 L 500 555.029 500 613.515 L 500 672 558.508 672 L 617.016 672 616.758 613.750 L 616.500 555.500 596.250 555.229 C 585.112 555.080, 576 554.612, 576 554.187 C 576 552.303, 585.111 529.700, 588.974 522 C 601.458 497.119, 621.649 473.515, 642.251 459.717 C 652.786 452.662, 668.936 444.571, 679.847 440.883 C 693.178 436.377, 692 434.620, 692 459 L 692 480 750 480 L 808 480 808 453.500 L 808 427 862 427 C 909.954 427, 916 427.172, 916 428.540 C 916 431.012, 919.757 437.683, 923.043 441.044 C 930.628 448.803, 944.199 450.738, 953.921 445.447 C 963.157 440.419, 968.015 432.242, 967.978 421.782 C 967.925 406.699, 956.742 395.709, 941.385 395.649 C 930.612 395.607, 920.810 402.280, 916.870 412.339 L 915.241 416.500 871.370 416.692 C 830.661 416.870, 827.752 416.770, 831 415.303 C 846.159 408.457, 855.789 403.503, 863.076 398.802 C 876.506 390.138, 891.222 376.977, 900.874 365 C 902.868 362.525, 904.784 360.275, 905.131 360 C 905.477 359.725, 908.654 355.196, 912.191 349.936 C 920.563 337.483, 930.801 316.571, 935.905 301.500 L 939.970 289.500 969.985 289.235 L 1000 288.971 1000 230.485 L 1000 172 941.492 172 L 882.984 172 883.242 230.250 M 898.239 230.250 L 898.500 273.500 941.750 273.761 L 985 274.021 985 230.511 L 985 187 941.489 187 L 897.979 187 898.239 230.250 M 707 422 L 707 465 750 465 L 793 465 793 422 L 793 379 750 379 L 707 379 707 422 M 515 613.489 L 515 657 558.511 657 L 602.021 657 601.761 613.750 L 601.500 570.500 558.250 570.239 L 515 569.979 515 613.489" stroke="none" fill="#080605" fill-rule="evenodd"/><path d="M 0 422.001 L 0 844.001 750.250 843.751 L 1500.500 843.500 1500.751 421.750 L 1501.002 -0 750.501 -0 L 0 0 0 422.001 M 0.495 422.500 C 0.495 654.600, 0.610 749.401, 0.750 633.168 C 0.890 516.936, 0.890 327.036, 0.750 211.168 C 0.610 95.301, 0.495 190.400, 0.495 422.500 M 883.242 230.250 L 883.500 288.500 903.750 288.771 C 914.888 288.920, 924 289.221, 924 289.441 C 924 291.397, 916.738 309.760, 912.412 318.745 C 902.373 339.595, 892.377 353.570, 876.733 368.625 C 861.511 383.274, 842.612 394.883, 821.612 402.485 C 806.676 407.891, 808 409.592, 808 385 L 808 364 750 364 L 692 364 692 390.500 L 692 417 638 417 C 590.046 417, 584 416.828, 584 415.460 C 584 414.613, 583.097 412.151, 581.994 409.989 C 573.969 394.258, 554.202 390.703, 540.211 402.476 C 529.925 411.131, 529.219 430.210, 538.809 440.343 C 546.135 448.083, 559.473 450.734, 569.070 446.356 C 576.284 443.066, 584 433.889, 584 428.599 C 584 427.156, 588.323 427.010, 628.250 427.106 C 662.426 427.189, 671.817 427.471, 669.500 428.347 C 662.381 431.037, 644.639 440.222, 636.898 445.223 C 603.555 466.767, 578.439 500.628, 563.630 544 L 560.044 554.500 530.022 554.765 L 500 555.029 500 613.515 L 500 672 558.508 672 L 617.016 672 616.758 613.750 L 616.500 555.500 596.250 555.229 C 585.112 555.080, 576 554.612, 576 554.187 C 576 552.303, 585.111 529.700, 588.974 522 C 601.458 497.119, 621.649 473.515, 642.251 459.717 C 652.786 452.662, 668.936 444.571, 679.847 440.883 C 693.178 436.377, 692 434.620, 692 459 L 692 480 750 480 L 808 480 808 453.500 L 808 427 862 427 C 909.954 427, 916 427.172, 916 428.540 C 916 431.012, 919.757 437.683, 923.043 441.044 C 930.628 448.803, 944.199 450.738, 953.921 445.447 C 963.157 440.419, 968.015 432.242, 967.978 421.782 C 967.925 406.699, 956.742 395.709, 941.385 395.649 C 930.612 395.607, 920.810 402.280, 916.870 412.339 L 915.241 416.500 871.370 416.692 C 830.661 416.870, 827.752 416.770, 831 415.303 C 846.159 408.457, 855.789 403.503, 863.076 398.802 C 876.506 390.138, 891.222 376.977, 900.874 365 C 902.868 362.525, 904.784 360.275, 905.131 360 C 905.477 359.725, 908.654 355.196, 912.191 349.936 C 920.563 337.483, 930.801 316.571, 935.905 301.500 L 939.970 289.500 969.985 289.235 L 1000 288.971 1000 230.485 L 1000 172 941.492 172 L 882.984 172 883.242 230.250 M 898.239 230.250 L 898.500 273.500 941.750 273.761 L 985 274.021 985 230.511 L 985 187 941.489 187 L 897.979 187 898.239 230.250 M 707 422 L 707 465 750 465 L 793 465 793 422 L 793 379 750 379 L 707 379 707 422 M 515 613.489 L 515 657 558.511 657 L 602.021 657 601.761 613.750 L 601.500 570.500 558.250 570.239 L 515 569.979 515 613.489" stroke="none" fill="#f3db7c" fill-rule="evenodd"/></svg>