<?xml version="1.0" standalone="no"?><svg xmlns="http://www.w3.org/2000/svg" viewBox="0 0 1440 320"><path fill="#0099ff" fill-opacity="1" d="M0,32L18.5,53.3C36.9,75,74,117,111,149.3C147.7,181,185,203,222,186.7C258.5,171,295,117,332,80C369.2,43,406,21,443,48C480,75,517,149,554,154.7C590.8,160,628,96,665,74.7C701.5,53,738,75,775,101.3C812.3,128,849,160,886,149.3C923.1,139,960,85,997,64C1033.8,43,1071,53,1108,64C1144.6,75,1182,85,1218,117.3C1255.4,149,1292,203,1329,234.7C1366.2,267,1403,277,1422,282.7L1440,288L1440,320L1421.5,320C1403.1,320,1366,320,1329,320C1292.3,320,1255,320,1218,320C1181.5,320,1145,320,1108,320C1070.8,320,1034,320,997,320C960,320,923,320,886,320C849.2,320,812,320,775,320C738.5,320,702,320,665,320C627.7,320,591,320,554,320C516.9,320,480,320,443,320C406.2,320,369,320,332,320C295.4,320,258,320,222,320C184.6,320,148,320,111,320C73.8,320,37,320,18,320L0,320Z"></path></svg>