<svg xmlns="http://www.w3.org/2000/svg" viewBox="0 0 1440 320"><path fill="#273036" fill-opacity="1" d="M0,256L0,256L75.8,256L75.8,96L151.6,96L151.6,288L227.4,288L227.4,320L303.2,320L303.2,32L378.9,32L378.9,64L454.7,64L454.7,96L530.5,96L530.5,224L606.3,224L606.3,192L682.1,192L682.1,96L757.9,96L757.9,64L833.7,64L833.7,192L909.5,192L909.5,96L985.3,96L985.3,160L1061.1,160L1061.1,160L1136.8,160L1136.8,32L1212.6,32L1212.6,160L1288.4,160L1288.4,160L1364.2,160L1364.2,224L1440,224L1440,320L1364.2,320L1364.2,320L1288.4,320L1288.4,320L1212.6,320L1212.6,320L1136.8,320L1136.8,320L1061.1,320L1061.1,320L985.3,320L985.3,320L909.5,320L909.5,320L833.7,320L833.7,320L757.9,320L757.9,320L682.1,320L682.1,320L606.3,320L606.3,320L530.5,320L530.5,320L454.7,320L454.7,320L378.9,320L378.9,320L303.2,320L303.2,320L227.4,320L227.4,320L151.6,320L151.6,320L75.8,320L75.8,320L0,320L0,320Z"></path></svg>