<?xml version="1.0" encoding="utf-8"?>
<!-- Svg Vector Icons : http://www.onlinewebfonts.com/icon -->
<!DOCTYPE svg PUBLIC "-//W3C//DTD SVG 1.1//EN" "http://www.w3.org/Graphics/SVG/1.1/DTD/svg11.dtd">
<svg version="1.1" xmlns="http://www.w3.org/2000/svg" xmlns:xlink="http://www.w3.org/1999/xlink" x="0px" y="0px" viewBox="0 0 256 256" enable-background="new 0 0 256 256" xml:space="preserve">
<metadata> Svg Vector Icons : http://www.onlinewebfonts.com/icon </metadata>
<g><g><g><path fill="#000000" d="M56.2,10.9c-3.1,1-5.2,2.6-7,5c-2.5,3.4-2.8,5.6-2.8,17.6v10.9h-4.3h-4.3v21.7v21.7h4.3h4.3l0.1,73.8l0.1,73.9l1,2.2c1.5,3.1,3.7,5.4,6.8,7l2.7,1.3h75.2h75.2l2.7-1.3c3.1-1.5,5.3-3.8,6.8-7l1-2.2l0.1-91.3l0.1-91.3h-4.3h-4.3l-0.1,90.7l-0.1,90.7l-1.6,1.5l-1.5,1.6h-74h-74l-1.5-1.6l-1.6-1.5L55.1,161L55,87.8H101h46.1V66.1V44.4H101H54.9l0.1-11.2l0.1-11.2l1.6-1.5l1.5-1.6l60.6-0.1l60.6-0.1v-4.3V10h-60.5C62.9,10,58.4,10.1,56.2,10.9z M94.9,54c8.4,4.3,8.5,19.3,0.1,23.4c-2.9,1.5-7,1.7-9.8,0.5c-5.6-2.3-8.2-9.6-6-16.9c0.9-3,4.2-6.5,6.9-7.5C88.2,52.8,93.1,53.1,94.9,54z M122.7,53.8c1.1,0.2,1.3,1.3,0.7,2.4c-0.3,0.5-0.8,0.5-2,0.1c-5.7-1.6-11.4,0.8-13.2,5.5c-1,2.6-0.7,7.3,0.5,9.6c1.7,3.3,6.3,5.2,10.5,4.5l1.9-0.3l0.1-4l0.1-3.9h-2.4c-2.2,0-2.4-0.1-2.4-1.2c0-1.2,0-1.2,4.1-1.2h4.1v6v6l-1.3,0.5c-0.8,0.3-3.1,0.6-5.2,0.8c-9,0.6-14-4-14-12.7C104.2,56.5,112.2,51.3,122.7,53.8z M66.9,64.6v11.2h5.3h5.3v1.4v1.4h-6.9h-6.9V66.1V53.4h1.7h1.7V64.6z"/><path fill="#000000" d="M85,57.5c-4.6,4.2-4.3,14,0.5,17.4c2.2,1.6,5.4,1.7,7.8,0.3c5.7-3.3,5.9-14.7,0.3-18.4c-1.2-0.8-2.3-1.1-4.2-1.1C87.2,55.8,86.8,56,85,57.5z"/><path fill="#000000" d="M183.8,29.6v19.1H201h17.2l-16.9-19.1c-9.4-10.5-17.1-19.1-17.2-19.1C183.9,10.5,183.8,19.1,183.8,29.6z"/><path fill="#000000" d="M78,125.2c-4,4-7.3,7.4-7.3,7.7c0,0.6,2.4,3.1,3.1,3.1c0.3,0,2.8-2.3,5.6-5.1l5.1-5.1l4.2,8.3c2.3,4.6,4.2,8.4,4.3,8.5c0.1,0.1,2.2-1.8,4.7-4.2l4.5-4.5l4.3,4.3l4.3,4.2l2.8-2.7l2.8-2.7h4h4.1l10.4-6.2l10.4-6.3l12.9,8.6c7.1,4.7,13,8.6,13.2,8.6c0.2,0,3.1-2.7,6.4-6.1l6.1-6.1l1.6,1.5c1.4,1.3,1.9,1.5,4.3,1.5h2.7v-2.4c0-2.4,0-2.4-1.5-2.4c-1.2,0-2.1-0.5-4.3-2.7l-2.8-2.8l-6.7,6.7l-6.6,6.6l-12.6-8.4l-12.6-8.4l-11.1,6.7l-11.1,6.7h-4.5c-4.4,0-4.5,0-6.1,1.5l-1.6,1.5l-4.3-4.2l-4.3-4.3l-4,4l-4.1,4l-4.2-8.4c-2.3-4.7-4.3-8.4-4.4-8.4C85.4,117.9,82,121.2,78,125.2z"/><path fill="#000000" d="M125.7,163.4l-6.9,6.9l-3.7-1.9c-3.7-1.8-3.9-1.9-8.9-1.9h-5.2l-3.5,5.2c-1.9,2.9-3.7,5.2-3.9,5.2c-0.2-0.1-2.1-2.7-4.1-5.7l-3.7-5.6l-7.2,4.7c-3.9,2.6-7.2,5-7.3,5.2c-0.1,0.4,0.5,1.6,2.1,3.7c0,0.1,2.3-1.3,5.1-3.1c2.7-1.8,5.2-3.4,5.4-3.6c0.3-0.2,2.3,2.3,5,6.3c2.4,3.7,4.6,6.7,4.8,6.7s2.5-3.2,5.1-7.2l4.7-7.2h3.5c3.2,0,3.8,0.2,8.3,2.4l4.8,2.4l6-6l6-6l3.8,5.7l3.8,5.8l4.1-0.2c3.6-0.1,4.6-0.4,7.9-2c2.1-1,5.4-2.8,7.3-3.9l3.5-2.1l12.8,8.5c7,4.7,13,8.7,13.3,8.9c0.4,0.2,1.4-1.3,3.2-4.9c1.4-2.9,2.6-5.4,2.6-5.5c0-0.2-3.5-2.1-4-2.1c-0.1,0-0.8,1.3-1.5,2.9c-0.8,1.6-1.5,2.9-1.8,2.9s-5.9-3.6-12.6-8.1l-12.1-8.1l-4.2,2.7c-6.5,4.1-10.8,6.1-13.6,6.3l-2.5,0.2l-4.7-7.2c-2.6-4-4.7-7.2-4.8-7.2C132.5,156.5,129.4,159.6,125.7,163.4z"/><path fill="#000000" d="M100.3,201.9c-3.3,6.5-6.1,11.9-6.2,11.9c-0.2,0-0.9-2-1.7-4.3c-0.8-2.4-1.5-4.4-1.7-4.5c-0.3-0.2-18.6,4.3-18.9,4.7c-0.1,0.1,0,1.2,0.3,2.4c0.4,1.7,0.7,2.1,1.3,2c0.4-0.1,3.4-0.9,6.7-1.7s6.3-1.6,6.8-1.7c0.6-0.2,1.2,1.1,3.2,7.3c1.4,4.2,2.6,7.7,2.8,7.9c0.2,0.2,3.2-5.4,6.7-12.5c3.5-7.1,6.5-12.9,6.7-12.9c0.1,0,1.9,3.2,3.8,7.2c2,4,3.8,7.1,4.1,7c0.2-0.1,4.7-1.2,9.9-2.5l9.4-2.3l3.4-5.2c2.7-4.1,3.5-5,4-4.5c0.3,0.3,3,4.7,6,9.7c3,5,5.6,9.4,5.9,9.7c0.4,0.5,2.1-1,7.3-6.2l6.8-6.8l6.2,4.2c3.4,2.3,6.4,4.2,6.6,4.2c0.2,0,1.4-1.1,2.7-2.4l2.3-2.4h3.7h3.7v-2.4v-2.4h-4.9h-4.9l-1.8,1.8l-1.8,1.7l-6.3-4.1c-3.4-2.3-6.3-4.2-6.5-4.2s-3,2.6-6.2,5.8c-3.2,3.2-5.9,5.7-6.1,5.6c-0.1-0.1-3-5-6.5-10.7s-6.4-10.6-6.4-10.6c-0.1-0.1-2.4,3.2-5.3,7.4l-5,7.6l-6.6,1.6c-3.6,0.9-6.9,1.7-7.3,1.8c-0.5,0.1-2.1-2.5-5.5-9.4c-2.6-5.3-4.9-9.5-5-9.5C106.4,189.9,103.6,195.3,100.3,201.9z"/></g></g></g>
</svg>