<svg xmlns="http://www.w3.org/2000/svg" width="752" height="752" viewBox="0 0 752 752" version="1.1"><path d="M 219 147.344 C 207.508 150.584, 199.659 156.885, 194.787 166.782 C 191.500 173.458, 191.500 173.458, 191.500 191 C 191.500 208.542, 191.500 208.542, 194.787 215.218 C 208.237 242.539, 247.756 242.541, 261.213 215.222 C 264.500 208.550, 264.500 208.550, 264.793 179.938 C 265.070 152.812, 264.984 151.201, 263.133 148.913 C 261.206 146.532, 260.932 146.497, 242.340 146.288 C 229.546 146.143, 222.056 146.482, 219 147.344 M 184.698 266.953 C 174.409 271.010, 166.087 279.835, 162.903 290.063 C 161.129 295.765, 161 299.927, 161 351.655 C 161 391.914, 161.319 407.731, 162.163 409.316 C 164.471 413.648, 165.764 413.935, 183.115 413.968 C 198.312 413.997, 199.952 414.175, 202.331 416.045 C 204.931 418.091, 204.931 418.091, 205.215 496.295 C 205.499 574.177, 205.509 574.517, 207.653 578.500 C 210.121 583.086, 213.201 586.192, 217.500 588.427 C 220.272 589.869, 217.893 589.988, 186.173 589.994 C 151.846 590, 151.846 590, 148.923 592.923 C 147.315 594.531, 146 596.815, 146 598 C 146 599.185, 147.315 601.469, 148.923 603.077 C 151.846 606, 151.846 606, 376 606 C 600.154 606, 600.154 606, 603.077 603.077 C 604.685 601.469, 606 599.185, 606 598 C 606 596.815, 604.685 594.531, 603.077 592.923 C 600.169 590.015, 600.092 590, 588.077 590 L 576 590 576 531 L 576 472 553.500 472 L 531 472 531 492 C 531 510.667, 530.867 512.133, 529 514 C 525.261 517.739, 519.750 515.913, 514.157 509.083 C 512.318 506.837, 510.334 505, 509.747 505 C 509.161 505, 506.086 507.475, 502.915 510.500 C 496.612 516.512, 493.808 517.283, 489.861 514.090 C 487.542 512.214, 487.495 511.823, 487.192 492.090 L 486.883 472 464.442 472 L 442 472 442 531 L 442 590 435 590 L 428 590 428 531 L 428 472 405.500 472 L 383 472 383 492 C 383 510.667, 382.867 512.133, 381 514 C 377.599 517.401, 374.417 516.539, 368.085 510.500 C 364.914 507.475, 361.951 505, 361.500 505 C 361.049 505, 358.086 507.475, 354.915 510.500 C 348.612 516.512, 345.808 517.283, 341.861 514.090 C 339.542 512.214, 339.495 511.823, 339.192 492.090 L 338.883 472 316.442 472 L 294 472 294 531 L 294 590 264.750 589.994 C 237.630 589.988, 235.719 589.874, 238.500 588.427 C 242.799 586.192, 245.879 583.086, 248.347 578.500 C 250.491 574.516, 250.501 574.182, 250.779 496.300 C 251.058 418.099, 251.058 418.099, 253.664 416.050 C 256.054 414.170, 257.649 414, 272.946 414 C 288.317 414, 289.793 413.841, 291.799 411.972 C 292.996 410.857, 294.225 408.945, 294.530 407.722 C 294.835 406.500, 294.953 379.850, 294.792 348.500 C 294.500 291.500, 294.500 291.500, 291.875 286 C 287.982 277.845, 282.859 272.549, 275.231 268.792 C 268.547 265.500, 268.547 265.500, 229.023 265.280 C 192.295 265.075, 189.160 265.193, 184.698 266.953 M 223.455 282.455 C 221 284.909, 221 284.909, 221 331.500 C 221 378.091, 221 378.091, 223.455 380.545 C 224.805 381.895, 226.850 383, 228 383 C 229.150 383, 231.195 381.895, 232.545 380.545 C 235 378.091, 235 378.091, 235 331.500 C 235 284.909, 235 284.909, 232.545 282.455 C 229.431 279.340, 226.569 279.340, 223.455 282.455 M 368 398.500 L 368 458 435 458 L 502 458 502 398.500 L 502 339 479.500 339 L 457 339 457 358.809 C 457 380.732, 456.758 381.691, 450.997 382.593 C 447.762 383.100, 447.055 382.688, 441.557 377.097 L 435.615 371.053 429.394 377.026 C 422.619 383.532, 419.891 384.351, 415.861 381.090 C 413.542 379.214, 413.495 378.823, 413.192 359.090 L 412.883 339 390.442 339 L 368 339 368 398.500 M 427 348.500 C 427 353.725, 427.380 358, 427.845 358 C 428.310 358, 429.505 357.100, 430.500 356 C 431.495 354.900, 433.505 354, 434.966 354 C 436.427 354, 438.589 354.900, 439.770 356 C 440.950 357.100, 442.160 358, 442.458 358 C 442.756 358, 443 353.725, 443 348.500 C 443 339, 443 339, 435 339 C 427 339, 427 339, 427 348.500 M 353 481.500 C 353 486.725, 353.267 491, 353.592 491 C 353.918 491, 355.329 490.100, 356.727 489 C 358.126 487.900, 360.264 487, 361.480 487 C 362.695 487, 364.505 487.900, 365.500 489 C 366.495 490.100, 367.690 491, 368.155 491 C 368.620 491, 369 486.725, 369 481.500 C 369 472, 369 472, 361 472 C 353 472, 353 472, 353 481.500 M 501 481.500 C 501 486.725, 501.267 491, 501.592 491 C 501.918 491, 503.329 490.100, 504.727 489 C 506.126 487.900, 508.264 487, 509.480 487 C 510.695 487, 512.505 487.900, 513.500 489 C 514.495 490.100, 515.690 491, 516.155 491 C 516.620 491, 517 486.725, 517 481.500 C 517 472, 517 472, 509 472 C 501 472, 501 472, 501 481.500 M 312 549 C 310.267 550.733, 310 552.333, 310 561 C 310 574.611, 310.399 575, 324.345 575 C 333.362 575, 334.919 574.747, 336.470 573.033 C 340.984 568.045, 337.209 562.015, 329.083 561.234 C 324 560.746, 324 560.746, 324 556.508 C 324 548.438, 316.964 544.036, 312 549 M 549.223 548.557 C 547.399 549.834, 547 551.070, 547 555.433 C 547 560.752, 547 560.752, 541.334 561.222 C 537.009 561.581, 535.234 562.228, 533.834 563.957 C 531.439 566.914, 531.505 570.505, 534 573 C 535.742 574.742, 537.333 575, 546.345 575 C 560.071 575, 560.500 574.576, 560.500 561 C 560.500 552.776, 560.195 550.873, 558.595 549.105 C 556.344 546.617, 552.327 546.382, 549.223 548.557 M 492.308 561.962 C 489.283 563.246, 486.805 567.298, 487.629 569.609 C 489.360 574.459, 490.766 575, 501.655 575 C 510.667 575, 512.258 574.742, 514 573 C 516.521 570.479, 516.556 566.908, 514.089 563.861 C 512.374 561.742, 511.273 561.476, 503.339 561.265 C 498.478 561.137, 493.514 561.450, 492.308 561.962" stroke="none" fill="#808000" fill-rule="evenodd"/><path d="" stroke="none" fill="#080404" fill-rule="evenodd"/></svg>