<svg xmlns="http://www.w3.org/2000/svg" width="500" height="500" viewBox="0 0 500 500" version="1.1"><path d="M 107.284 152.701 C 106.065 152.937, 103.928 154.485, 102.534 156.142 L 100 159.153 100 249.126 C 100 345.785, 99.871 343.255, 104.945 345.970 C 106.186 346.635, 123.130 346.992, 152.684 346.978 C 202.589 346.954, 200.905 347.140, 203.883 341.316 C 204.672 339.774, 205 320.149, 205 274.566 L 205 210 207.500 210 C 209.833 210, 210 209.667, 210 205 L 210 200 195.500 200 L 181 200 181 203.429 C 181 209.257, 176.138 212.020, 172.655 208.171 C 171.521 206.918, 171 204.542, 171 200.624 C 171 195.724, 171.379 194.553, 173.646 192.452 C 176.245 190.044, 176.605 190, 193.753 190 C 209.264 190, 211.146 189.823, 210.607 188.418 C 210.273 187.548, 210 185.298, 210 183.418 C 210 180.439, 209.679 180, 207.500 180 L 205 180 205 169.723 C 205 161.839, 204.620 158.903, 203.369 157.117 C 199.890 152.150, 198.249 151.990, 152.282 152.136 C 128.752 152.211, 108.503 152.465, 107.284 152.701 M 302.284 152.701 C 301.065 152.937, 298.928 154.485, 297.534 156.142 C 295.177 158.944, 295 159.880, 295 169.577 L 295 180 292.500 180 C 290.321 180, 290 180.439, 290 183.418 C 290 185.298, 289.727 187.548, 289.393 188.418 C 288.859 189.809, 290.308 190, 301.393 190 C 312.866 190, 314 189.838, 314 188.200 C 314 185.892, 315.897 184, 318.212 184 C 320.838 184, 335.079 191.043, 335.695 192.646 C 337.077 196.249, 334.986 198.753, 327.576 202.366 C 323.477 204.365, 319.286 206, 318.262 206 C 315.902 206, 314 204.125, 314 201.800 C 314 200.167, 312.889 200, 302 200 L 290 200 290 205 C 290 209.655, 290.171 210, 292.479 210 L 294.958 210 295.229 276.095 L 295.500 342.190 298.500 344.590 L 301.500 346.990 347.500 346.973 C 397.609 346.954, 395.904 347.142, 398.883 341.316 C 399.681 339.755, 400 313.466, 400 249.201 C 400 160.117, 399.981 159.245, 397.955 156.669 C 396.829 155.239, 394.242 153.606, 392.205 153.040 C 388.638 152.050, 307.236 151.743, 302.284 152.701 M 137.223 163.557 C 136 164.413, 135 166.158, 135 167.434 C 135 171.856, 137.224 172.500, 152.500 172.500 C 167.776 172.500, 170 171.856, 170 167.434 C 170 163.006, 166.759 162, 152.500 162 C 142.303 162, 138.959 162.341, 137.223 163.557 M 332.223 163.557 C 329.723 165.307, 329.287 169.164, 331.391 170.910 C 333.503 172.662, 358.845 173.342, 362 171.731 C 365.421 169.983, 365.859 165.715, 362.835 163.597 C 359.566 161.307, 335.479 161.276, 332.223 163.557 M 357.308 217.968 C 352.672 219.924, 351.804 222.954, 352.165 235.929 C 352.628 252.537, 352.588 252.500, 370 252.500 C 387.596 252.500, 387.237 252.871, 387.064 234.876 C 386.894 217.257, 387.187 217.582, 371.225 217.272 C 364.776 217.146, 358.514 217.460, 357.308 217.968 M 161.229 220.669 C 158.319 221.840, 157 226.872, 157 236.801 C 157 247.510, 158.167 252.484, 161.039 254.021 C 163.149 255.150, 187.001 255.336, 188.500 254.235 C 191.749 251.848, 192.387 249.493, 192.643 238.935 C 192.923 227.372, 191.939 222.573, 188.961 220.979 C 187.110 219.988, 163.574 219.726, 161.229 220.669 M 312.020 228.241 C 307.708 230.498, 306.918 233.458, 307.221 246.225 C 307.609 262.537, 307.503 262.444, 325.212 262.146 C 342.597 261.854, 341.874 262.579, 342.116 245.178 C 342.362 227.461, 342.492 227.608, 326.225 227.221 C 318.070 227.028, 313.745 227.338, 312.020 228.241 M 362.667 227.667 C 361.826 228.507, 361.803 234.766, 362.625 238.875 L 363.250 242 370.125 242 L 377 242 377.091 239 C 377.141 237.350, 377.182 234.650, 377.182 233 C 377.182 226.743, 377.483 227, 370.167 227 C 366.408 227, 363.033 227.300, 362.667 227.667 M 116.229 230.669 C 113.255 231.866, 112 236.859, 112 247.500 C 112 258.499, 113.242 263.111, 116.545 264.379 C 117.435 264.720, 123.752 265, 130.582 265 C 141.667 265, 143.215 264.785, 145 263 C 146.100 261.900, 147.018 260.325, 147.040 259.500 C 147.062 258.675, 147.080 253.500, 147.080 248 C 147.080 242.500, 147.062 237.100, 147.040 236 C 147.018 234.900, 146.100 233.100, 145 232 C 143.200 230.200, 141.727 230.008, 130.250 230.079 C 123.237 230.122, 116.928 230.388, 116.229 230.669 M 167.184 237.250 L 167.546 244.500 174.773 244.794 L 182 245.088 182 237.544 L 182 230 174.412 230 L 166.823 230 167.184 237.250 M 317.667 237.667 C 316.826 238.507, 316.803 244.766, 317.625 248.875 L 318.250 252 325.125 252 L 332 252 332 244.500 L 332 237 325.167 237 C 321.408 237, 318.033 237.300, 317.667 237.667 M 122.104 245.750 C 122.516 255.224, 122.323 255, 130.024 255 L 136.815 255 137.197 249.250 C 137.815 239.946, 137.861 240, 129.311 240 L 121.855 240 122.104 245.750 M 312.020 273.241 C 307.708 275.498, 306.918 278.458, 307.221 291.225 C 307.603 307.278, 307.711 307.384, 323.701 307.243 C 330.190 307.186, 336.277 307.108, 337.227 307.069 C 341.014 306.917, 342.145 302.844, 342.133 289.404 C 342.118 272.457, 342.252 272.602, 326.225 272.221 C 318.070 272.028, 313.745 272.338, 312.020 273.241 M 357.020 273.241 C 352.708 275.498, 351.918 278.458, 352.221 291.225 C 352.600 307.143, 352.278 306.853, 369.814 307.116 C 387.857 307.387, 387.466 307.778, 387.146 289.781 C 386.835 272.282, 387.123 272.599, 371.225 272.221 C 363.070 272.028, 358.745 272.338, 357.020 273.241 M 116.229 275.669 C 113.255 276.866, 112 281.859, 112 292.500 C 112 303.499, 113.242 308.111, 116.545 309.379 C 117.435 309.720, 123.734 310, 130.543 310 C 146.336 310, 146.957 309.533, 147.088 297.561 C 147.136 293.128, 147.196 288.150, 147.221 286.500 C 147.312 280.464, 146.960 278.960, 145 277 C 143.200 275.200, 141.727 275.008, 130.250 275.079 C 123.237 275.122, 116.928 275.388, 116.229 275.669 M 160.736 276.250 C 157.962 278.357, 157 282.698, 157 293.115 C 157 303.481, 158.300 308.134, 161.545 309.379 C 162.435 309.720, 168.734 310, 175.543 310 C 186.990 310, 188.076 309.835, 189.961 307.811 C 191.082 306.608, 192.065 304.245, 192.145 302.561 C 193.032 283.861, 192.308 277.770, 188.986 275.992 C 186.206 274.505, 162.753 274.719, 160.736 276.250 M 317.667 282.667 C 316.826 283.507, 316.803 289.766, 317.625 293.875 L 318.250 297 325.125 297 L 332 297 332 289.500 L 332 282 325.167 282 C 321.408 282, 318.033 282.300, 317.667 282.667 M 362.486 283.023 C 361.817 284.106, 362.033 293.635, 362.775 295.750 C 363.068 296.584, 365.470 297, 369.993 297 C 376.626 297, 376.782 296.941, 377.170 294.250 C 377.388 292.738, 377.394 289.363, 377.183 286.750 L 376.799 282 369.958 282 C 366.196 282, 362.834 282.460, 362.486 283.023 M 122.205 292.207 L 122.500 299.500 129.750 299.794 L 137 300.088 137.131 297.294 C 137.203 295.757, 137.279 292.475, 137.300 290 L 137.338 285.500 129.624 285.207 L 121.911 284.914 122.205 292.207 M 167.238 292.250 L 167.652 299.500 174.731 299.792 L 181.810 300.084 182.155 294.792 C 182.802 284.871, 182.905 285, 174.342 285 L 166.824 285 167.238 292.250 M 137.250 328.525 C 134.731 330.304, 134.278 334.156, 136.383 335.903 C 138.436 337.607, 166.420 337.726, 168.452 336.040 C 170.647 334.219, 170.370 330.373, 167.921 328.657 C 164.765 326.447, 140.342 326.341, 137.250 328.525 M 332.223 328.557 C 329.805 330.250, 329.291 333.891, 331.200 335.800 C 332.027 336.627, 337.089 337, 347.500 337 C 363.451 337, 365 336.589, 365 332.357 C 365 328.010, 361.700 327, 347.500 327 C 337.303 327, 333.959 327.341, 332.223 328.557" stroke="none" fill="#c7e8ea" fill-rule="evenodd"/><path d="M 0 250.002 L 0 500.004 250.250 499.752 L 500.500 499.500 500.752 249.750 L 501.004 0 250.502 0 L 0 0 0 250.002 M 0.492 250.500 C 0.492 388, 0.608 444.101, 0.750 375.170 C 0.892 306.238, 0.892 193.738, 0.750 125.170 C 0.608 56.601, 0.492 113, 0.492 250.500 M 107.284 152.701 C 106.065 152.937, 103.928 154.485, 102.534 156.142 L 100 159.153 100 249.126 C 100 345.785, 99.871 343.255, 104.945 345.970 C 106.186 346.635, 123.130 346.992, 152.684 346.978 C 202.589 346.954, 200.905 347.140, 203.883 341.316 C 204.672 339.774, 205 320.149, 205 274.566 L 205 210 207.500 210 C 209.833 210, 210 209.667, 210 205 L 210 200 195.500 200 L 181 200 181 203.429 C 181 209.257, 176.138 212.020, 172.655 208.171 C 171.521 206.918, 171 204.542, 171 200.624 C 171 195.724, 171.379 194.553, 173.646 192.452 C 176.245 190.044, 176.605 190, 193.753 190 C 209.264 190, 211.146 189.823, 210.607 188.418 C 210.273 187.548, 210 185.298, 210 183.418 C 210 180.439, 209.679 180, 207.500 180 L 205 180 205 169.723 C 205 161.839, 204.620 158.903, 203.369 157.117 C 199.890 152.150, 198.249 151.990, 152.282 152.136 C 128.752 152.211, 108.503 152.465, 107.284 152.701 M 302.284 152.701 C 301.065 152.937, 298.928 154.485, 297.534 156.142 C 295.177 158.944, 295 159.880, 295 169.577 L 295 180 292.500 180 C 290.321 180, 290 180.439, 290 183.418 C 290 185.298, 289.727 187.548, 289.393 188.418 C 288.859 189.809, 290.308 190, 301.393 190 C 312.866 190, 314 189.838, 314 188.200 C 314 185.892, 315.897 184, 318.212 184 C 320.838 184, 335.079 191.043, 335.695 192.646 C 337.077 196.249, 334.986 198.753, 327.576 202.366 C 323.477 204.365, 319.286 206, 318.262 206 C 315.902 206, 314 204.125, 314 201.800 C 314 200.167, 312.889 200, 302 200 L 290 200 290 205 C 290 209.655, 290.171 210, 292.479 210 L 294.958 210 295.229 276.095 L 295.500 342.190 298.500 344.590 L 301.500 346.990 347.500 346.973 C 397.609 346.954, 395.904 347.142, 398.883 341.316 C 399.681 339.755, 400 313.466, 400 249.201 C 400 160.117, 399.981 159.245, 397.955 156.669 C 396.829 155.239, 394.242 153.606, 392.205 153.040 C 388.638 152.050, 307.236 151.743, 302.284 152.701 M 137.223 163.557 C 136 164.413, 135 166.158, 135 167.434 C 135 171.856, 137.224 172.500, 152.500 172.500 C 167.776 172.500, 170 171.856, 170 167.434 C 170 163.006, 166.759 162, 152.500 162 C 142.303 162, 138.959 162.341, 137.223 163.557 M 332.223 163.557 C 329.723 165.307, 329.287 169.164, 331.391 170.910 C 333.503 172.662, 358.845 173.342, 362 171.731 C 365.421 169.983, 365.859 165.715, 362.835 163.597 C 359.566 161.307, 335.479 161.276, 332.223 163.557 M 357.308 217.968 C 352.672 219.924, 351.804 222.954, 352.165 235.929 C 352.628 252.537, 352.588 252.500, 370 252.500 C 387.596 252.500, 387.237 252.871, 387.064 234.876 C 386.894 217.257, 387.187 217.582, 371.225 217.272 C 364.776 217.146, 358.514 217.460, 357.308 217.968 M 161.229 220.669 C 158.319 221.840, 157 226.872, 157 236.801 C 157 247.510, 158.167 252.484, 161.039 254.021 C 163.149 255.150, 187.001 255.336, 188.500 254.235 C 191.749 251.848, 192.387 249.493, 192.643 238.935 C 192.923 227.372, 191.939 222.573, 188.961 220.979 C 187.110 219.988, 163.574 219.726, 161.229 220.669 M 312.020 228.241 C 307.708 230.498, 306.918 233.458, 307.221 246.225 C 307.609 262.537, 307.503 262.444, 325.212 262.146 C 342.597 261.854, 341.874 262.579, 342.116 245.178 C 342.362 227.461, 342.492 227.608, 326.225 227.221 C 318.070 227.028, 313.745 227.338, 312.020 228.241 M 362.667 227.667 C 361.826 228.507, 361.803 234.766, 362.625 238.875 L 363.250 242 370.125 242 L 377 242 377.091 239 C 377.141 237.350, 377.182 234.650, 377.182 233 C 377.182 226.743, 377.483 227, 370.167 227 C 366.408 227, 363.033 227.300, 362.667 227.667 M 116.229 230.669 C 113.255 231.866, 112 236.859, 112 247.500 C 112 258.499, 113.242 263.111, 116.545 264.379 C 117.435 264.720, 123.752 265, 130.582 265 C 141.667 265, 143.215 264.785, 145 263 C 146.100 261.900, 147.018 260.325, 147.040 259.500 C 147.062 258.675, 147.080 253.500, 147.080 248 C 147.080 242.500, 147.062 237.100, 147.040 236 C 147.018 234.900, 146.100 233.100, 145 232 C 143.200 230.200, 141.727 230.008, 130.250 230.079 C 123.237 230.122, 116.928 230.388, 116.229 230.669 M 167.184 237.250 L 167.546 244.500 174.773 244.794 L 182 245.088 182 237.544 L 182 230 174.412 230 L 166.823 230 167.184 237.250 M 317.667 237.667 C 316.826 238.507, 316.803 244.766, 317.625 248.875 L 318.250 252 325.125 252 L 332 252 332 244.500 L 332 237 325.167 237 C 321.408 237, 318.033 237.300, 317.667 237.667 M 122.104 245.750 C 122.516 255.224, 122.323 255, 130.024 255 L 136.815 255 137.197 249.250 C 137.815 239.946, 137.861 240, 129.311 240 L 121.855 240 122.104 245.750 M 312.020 273.241 C 307.708 275.498, 306.918 278.458, 307.221 291.225 C 307.603 307.278, 307.711 307.384, 323.701 307.243 C 330.190 307.186, 336.277 307.108, 337.227 307.069 C 341.014 306.917, 342.145 302.844, 342.133 289.404 C 342.118 272.457, 342.252 272.602, 326.225 272.221 C 318.070 272.028, 313.745 272.338, 312.020 273.241 M 357.020 273.241 C 352.708 275.498, 351.918 278.458, 352.221 291.225 C 352.600 307.143, 352.278 306.853, 369.814 307.116 C 387.857 307.387, 387.466 307.778, 387.146 289.781 C 386.835 272.282, 387.123 272.599, 371.225 272.221 C 363.070 272.028, 358.745 272.338, 357.020 273.241 M 116.229 275.669 C 113.255 276.866, 112 281.859, 112 292.500 C 112 303.499, 113.242 308.111, 116.545 309.379 C 117.435 309.720, 123.734 310, 130.543 310 C 146.336 310, 146.957 309.533, 147.088 297.561 C 147.136 293.128, 147.196 288.150, 147.221 286.500 C 147.312 280.464, 146.960 278.960, 145 277 C 143.200 275.200, 141.727 275.008, 130.250 275.079 C 123.237 275.122, 116.928 275.388, 116.229 275.669 M 160.736 276.250 C 157.962 278.357, 157 282.698, 157 293.115 C 157 303.481, 158.300 308.134, 161.545 309.379 C 162.435 309.720, 168.734 310, 175.543 310 C 186.990 310, 188.076 309.835, 189.961 307.811 C 191.082 306.608, 192.065 304.245, 192.145 302.561 C 193.032 283.861, 192.308 277.770, 188.986 275.992 C 186.206 274.505, 162.753 274.719, 160.736 276.250 M 317.667 282.667 C 316.826 283.507, 316.803 289.766, 317.625 293.875 L 318.250 297 325.125 297 L 332 297 332 289.500 L 332 282 325.167 282 C 321.408 282, 318.033 282.300, 317.667 282.667 M 362.486 283.023 C 361.817 284.106, 362.033 293.635, 362.775 295.750 C 363.068 296.584, 365.470 297, 369.993 297 C 376.626 297, 376.782 296.941, 377.170 294.250 C 377.388 292.738, 377.394 289.363, 377.183 286.750 L 376.799 282 369.958 282 C 366.196 282, 362.834 282.460, 362.486 283.023 M 122.205 292.207 L 122.500 299.500 129.750 299.794 L 137 300.088 137.131 297.294 C 137.203 295.757, 137.279 292.475, 137.300 290 L 137.338 285.500 129.624 285.207 L 121.911 284.914 122.205 292.207 M 167.238 292.250 L 167.652 299.500 174.731 299.792 L 181.810 300.084 182.155 294.792 C 182.802 284.871, 182.905 285, 174.342 285 L 166.824 285 167.238 292.250 M 137.250 328.525 C 134.731 330.304, 134.278 334.156, 136.383 335.903 C 138.436 337.607, 166.420 337.726, 168.452 336.040 C 170.647 334.219, 170.370 330.373, 167.921 328.657 C 164.765 326.447, 140.342 326.341, 137.250 328.525 M 332.223 328.557 C 329.805 330.250, 329.291 333.891, 331.200 335.800 C 332.027 336.627, 337.089 337, 347.500 337 C 363.451 337, 365 336.589, 365 332.357 C 365 328.010, 361.700 327, 347.500 327 C 337.303 327, 333.959 327.341, 332.223 328.557" stroke="none" fill="#04bbd3" fill-rule="evenodd"/></svg>