<?xml version="1.0" standalone="no"?><svg style="background-color:#E8C142" xmlns="http://www.w3.org/2000/svg" viewBox="0 0 1440 320"><path fill="#0015ff" fill-opacity="1" d="M0,256L0,288L43.6,288L43.6,32L87.3,32L87.3,288L130.9,288L130.9,160L174.5,160L174.5,64L218.2,64L218.2,96L261.8,96L261.8,128L305.5,128L305.5,160L349.1,160L349.1,160L392.7,160L392.7,160L436.4,160L436.4,128L480,128L480,0L523.6,0L523.6,256L567.3,256L567.3,224L610.9,224L610.9,64L654.5,64L654.5,160L698.2,160L698.2,128L741.8,128L741.8,32L785.5,32L785.5,256L829.1,256L829.1,224L872.7,224L872.7,192L916.4,192L916.4,256L960,256L960,256L1003.6,256L1003.6,288L1047.3,288L1047.3,192L1090.9,192L1090.9,96L1134.5,96L1134.5,320L1178.2,320L1178.2,192L1221.8,192L1221.8,32L1265.5,32L1265.5,128L1309.1,128L1309.1,192L1352.7,192L1352.7,160L1396.4,160L1396.4,64L1440,64L1440,320L1396.4,320L1396.4,320L1352.7,320L1352.7,320L1309.1,320L1309.1,320L1265.5,320L1265.5,320L1221.8,320L1221.8,320L1178.2,320L1178.2,320L1134.5,320L1134.5,320L1090.9,320L1090.9,320L1047.3,320L1047.3,320L1003.6,320L1003.6,320L960,320L960,320L916.4,320L916.4,320L872.7,320L872.7,320L829.1,320L829.1,320L785.5,320L785.5,320L741.8,320L741.8,320L698.2,320L698.2,320L654.5,320L654.5,320L610.9,320L610.9,320L567.3,320L567.3,320L523.6,320L523.6,320L480,320L480,320L436.4,320L436.4,320L392.7,320L392.7,320L349.1,320L349.1,320L305.5,320L305.5,320L261.8,320L261.8,320L218.2,320L218.2,320L174.5,320L174.5,320L130.9,320L130.9,320L87.3,320L87.3,320L43.6,320L43.6,320L0,320L0,320Z"></path></svg>